<?xml version="1.0" standalone="no"?>
<!DOCTYPE svg PUBLIC "-//W3C//DTD SVG 1.1//EN" "http://www.w3.org/Graphics/SVG/1.1/DTD/svg11.dtd" >
<svg xmlns="http://www.w3.org/2000/svg">
<metadata>Generated by IcoMoon</metadata>
<defs>
<font id="wu-icons" horiz-adv-x="1024">
<font-face units-per-em="1024" ascent="960" descent="-64" />
<missing-glyph horiz-adv-x="1024" />
<glyph unicode="&#x20;" d="" horiz-adv-x="512" />
<glyph unicode="&#xe600;" d="M858.176 186.176l-608 608 165.824 165.824h-416v-416l165.824 165.824 608-608-165.824-165.824h416v416z" />
<glyph unicode="&#xe601;" d="M889.68 793.68c-93.608 102.216-228.154 166.32-377.68 166.32-282.77 0-512-229.23-512-512h96c0 229.75 186.25 416 416 416 123.020 0 233.542-53.418 309.696-138.306l-149.696-149.694h352v352l-134.32-134.32zM928 448c0-229.75-186.25-416-416-416-123.020 0-233.542 53.418-309.694 138.306l149.694 149.694h-352v-352l134.32 134.32c93.608-102.216 228.154-166.32 377.68-166.32 282.77 0 512 229.23 512 512h-96z" />
<glyph unicode="&#xe602;" d="M128 49.792c0-62.848 50.944-113.792 113.792-113.792h476.416c62.848 0 113.792 50.944 113.792 113.792v654.208h-704v-654.208zM896 896h-208l-63.104 64h-284.48l-44.416-64h-232v-128h832v128z" />
<glyph unicode="&#xe604;" d="M512 852.667c8 0 18 0 30 0 10-2 18-2 24-4h10c6-2 10-4 14-10 6-4 8-10 8-16v-190l134 134c4 4 10 6 16 8 6 0 12-2 16-6l90-90c4-4 6-10 6-16-2-6-4-12-8-16l-134-134h190c6 0 12-2 16-8 6-4 8-8 10-14 2-24 4-44 4-64 0-8 0-18 0-30-2-10-2-18-4-24v-10c-2-6-4-10-10-14-4-6-10-8-16-8h-190l134-134c4-4 6-10 8-16 0-6-2-12-6-16l-90-90c-4-4-10-6-16-6-6 2-12 4-16 8l-134 134v-190c0-6-2-12-8-16-4-6-8-8-14-10-24-2-44-4-64-4-8 0-18 0-30 0-10 2-18 2-24 4h-10c-6 2-10 4-14 10-6 4-8 10-8 16v190l-134-134c-4-4-10-6-16-8-6 0-12 2-16 6l-90 90c-4 4-6 10-6 16 2 6 4 12 8 16l134 134h-190c-6 0-12 2-16 8-6 4-8 8-10 14-2 24-4 44-4 64 0 8 0 18 0 30 2 10 2 18 4 24v10c2 6 4 10 10 14 4 6 10 8 16 8h190l-134 134c-4 4-6 10-8 16 0 6 2 12 6 16l90 90c4 4 10 6 16 6 6-2 12-4 16-8l134-134v190c0 6 2 12 8 16 4 6 8 8 14 10 24 2 44 4 64 4z" />
<glyph unicode="&#xe605;" d="M704 852.667h214c6 0 8 0 10-4 2-2 0-6-4-10l-312-312c-2-2-6-8-8-14h228c6 0 10-2 12-6 0-4 0-8-4-12l-102-136c-4-4-8-8-16-12-6-4-12-6-18-6h-106v-84h234c6 0 10-2 12-6 0-4 0-8-4-12l-102-136c-4-4-8-8-16-12-6-4-12-6-18-6h-106v-148c0-6-2-12-8-16-4-4-8-6-14-6h-128c-6 0-10 2-14 6-6 4-8 10-8 16v148h-234c-6 0-10 2-12 6 0 4 0 8 4 12l102 136c4 4 8 8 16 12 6 4 12 6 18 6h106v84h-234c-6 0-10 2-12 6 0 4 0 8 4 12l102 136c4 4 8 8 16 12 6 4 12 6 18 6h100c-2 6-6 12-8 14l-312 312c-4 4-6 8-4 10 2 4 4 4 10 4h214c14 0 26-4 36-14l140-140c6-6 10-8 16-8s10 2 16 8l140 140c10 10 22 14 36 14z" />
<glyph unicode="&#xe606;" d="M634 936.667c138 0 240-54 302-160 36-60 54-120 58-180h-156c0 26-4 50-14 72-10 20-22 38-38 52-14 14-30 24-48 34s-36 16-52 20c-16 4-32 6-44 6s-22 0-34-4c-14-2-28-8-44-18-16-8-30-18-44-32-14-12-28-30-42-52-14-24-24-48-34-78h324l-86-84h-256c-2-30-4-58-4-86h346l-86-86h-256c6-42 16-78 28-112 14-32 30-58 46-78 16-18 34-34 52-46s36-20 50-24c16-6 28-8 40-8 14 0 28 2 44 8 16 4 34 10 52 20s34 22 48 36c16 12 28 30 38 52 10 20 14 42 14 68h150c-18-98-54-178-110-238-60-66-138-100-234-100-116 0-210 46-276 136-20 26-40 64-60 112-18 48-30 106-38 174h-184l84 86h96c0 26 2 56 6 86h-186l84 84h116c10 50 24 94 42 132s36 66 54 88c66 80 150 120 252 120z" />
<glyph unicode="&#xe607;" d="M366 938.667h298c38 0 72-4 102-12 30-6 54-16 74-26 18-10 34-24 48-42s24-34 30-48c6-14 12-32 14-56 4-22 6-38 6-50s0-28 0-50v-28c0-20 0-36 0-48s-2-30-6-52c-2-22-8-42-14-56s-16-30-30-48c-14-18-30-32-48-44-20-10-44-18-74-26s-64-12-102-12h-152l-2-84h246c6 0 10-2 12-6 0-4 0-8-4-12l-102-136c-4-4-8-8-16-12-6-4-12-6-18-6h-118v-148c0-6-2-12-4-16-4-4-8-6-14-6h-126c-6 0-12 2-16 6s-6 10-6 16v148h-228c-6 0-10 2-12 6 0 4 0 8 4 12l102 136c4 4 8 8 16 12 6 4 12 6 18 6h100v84h-228c-6 0-10 2-12 6 0 4 0 8 4 12l102 136c4 4 8 8 16 12 6 4 12 6 18 6h100v404c0 6 2 12 6 16s10 6 16 6zM512 768.667v-256h174c36 0 60 8 74 28 12 18 18 52 18 102 0 46-6 80-18 98-14 18-38 28-74 28z" />
<glyph unicode="&#xe608;" d="M214 512.667h682c12 0 22-4 30-14 8-8 12-18 12-30v-170c0-12-4-22-12-30s-18-12-30-12h-682c-12 0-22 4-30 12-10 8-14 18-14 30v170c0 12 4 22 14 30 8 10 18 14 30 14z" />
<glyph unicode="&#xe609;" d="M854 938.667v-128c0-12-4-22-14-30-8-8-18-12-30-12h-42v-86c0-52-14-98-42-142-28-42-66-72-112-92 46-20 84-52 112-94s42-90 42-142v-128h42c12 0 22-4 30-12 10-8 14-18 14-30v-128h-684v128c0 12 4 22 14 30 8 8 18 12 30 12h42v128c0 52 14 100 42 142s66 74 112 94c-46 20-84 50-112 92-28 44-42 90-42 142v86h-42c-12 0-22 4-30 12-10 8-14 18-14 30v128zM342 768.667v-86c0-34 8-66 28-94 18-28 42-48 74-62 16-6 28-18 38-32 8-14 12-30 12-46 0-18-4-34-12-48-10-14-22-24-38-32-32-12-56-34-74-62-20-28-28-60-28-94v-128h340v128c0 34-8 66-28 94-18 28-42 50-74 62-16 8-28 18-38 32-8 14-12 30-12 48 0 16 4 32 12 46 10 14 22 26 38 32 32 14 56 34 74 62 20 28 28 60 28 94v86z" />
<glyph unicode="&#xe60a;" d="M430 844.667c62 0 118-18 170-52s90-78 116-134c24 8 50 12 76 12 68 0 126-24 174-72 50-50 74-108 74-178 0-68-24-126-74-176-48-50-106-74-174-74h-640c-46 0-84 16-116 48-32 34-48 72-48 118 0 38 12 74 36 104s56 50 92 58c0 6 0 18 0 32 0 86 30 160 92 222 60 60 134 92 222 92z" />
<glyph unicode="&#xe60b;" d="M22 852.667h980c6 0 10 0 12-4 0-2 0-6-6-10l-480-484c-6-6-10-8-16-8s-10 2-16 8l-480 484c-6 4-6 8-6 10 2 4 6 4 12 4zM16 666.667l224-224c6-6 8-10 8-16s-2-10-8-16l-224-224c-6-6-8-6-12-6-2 2-4 6-4 12v468c0 6 2 10 4 12 4 0 6 0 12-6zM784 442.667l224 224c6 6 8 6 12 6 2-2 4-6 4-12v-468c0-6-2-10-4-12-4 0-6 0-12 6l-224 224c-6 6-8 10-8 16s2 10 8 16zM698 326.667l310-312c6-4 6-8 6-10-2-4-6-4-12-4h-980c-6 0-10 0-12 4 0 2 0 6 6 10l310 312c4 4 10 6 16 6s10-2 14-6l140-140c6-6 10-8 16-8s10 2 16 8l140 140c4 4 8 6 14 6s12-2 16-6z" />
<glyph unicode="&#xe60c;" d="M862 946.667c12 0 20-4 28-10l132-132c6-8 10-16 10-28 0-10-4-20-10-28l-86-78-182 182 82 82c6 8 16 12 26 12zM864 596.667l-524-524-182 184 522 524zM270-3.333l-284-96 94 286z" />
<glyph unicode="&#xe60d;" d="M598 468.667v-468h212c12 0 22-4 30-14 10-8 14-18 14-30v-42h-684v42c0 12 4 22 14 30 8 10 18 14 30 14h212v468l-426 470h1024z" />
<glyph unicode="&#xe60e;" d="M314 782.667l550 138c22 10 40 10 54 0 14-8 20-22 20-40v-710c0-32-12-58-34-82-24-22-56-40-96-54-44-14-86-16-126-4-38 12-62 34-72 64-10 32-4 64 22 96 24 32 58 56 104 70 40 14 80 16 118 6v446l-512-134v-516c0-24-14-50-38-78-26-26-56-46-94-58-44-14-86-16-124-4-40 10-64 32-74 64-10 30-4 62 22 94 24 32 60 56 104 72 42 12 80 14 118 6v544c0 22 4 38 12 50s24 22 46 30z" />
<glyph unicode="&#xe60f;" d="M426 930.667c58 0 112-10 164-32 52-24 96-52 134-90 36-38 66-82 88-134s34-106 34-162l-2-2 2-4c0-80-22-156-66-224l234-234c12-14 20-28 18-38 0-10-6-22-18-36l-50-50c-16-12-28-16-40-16s-24 4-34 16l-234 234c-68-44-142-66-224-66l-4 2-2-2c-56 0-110 12-162 34s-96 52-134 88c-38 38-66 82-90 134-22 52-32 106-32 164 0 56 10 110 32 162 24 52 52 96 90 134s82 66 134 90c52 22 106 32 162 32zM426 786.667c-50 0-96-12-138-36-42-26-74-58-100-100-24-42-36-88-36-138s12-96 36-138c26-44 58-76 100-100 42-26 88-38 138-38s96 12 138 38c44 24 76 56 100 100 26 42 38 88 38 138s-12 96-38 138c-24 42-56 74-100 100-42 24-88 36-138 36z" />
<glyph unicode="&#xe610;" d="M577.063 606.806c16.326 7.652 33.382 25.252 41.215 42.528 18.635 41.101 0.12 90.727-41.43 111.043-12.438 6.082-17.169 6.928-38.726 6.928-21.817 0-26.091-0.786-38.304-7.044-28.687-14.7-46.876-41.9-48.408-72.388-1.676-33.373 15.645-63.28 45.921-79.289 22.389-11.838 56.639-12.602 79.732-1.777zM517.971 88.054c11.249 1.991 86.794 28.595 89.084 31.372 1.732 2.1 8.891 35.913 7.829 36.975-0.677 0.677-9.164-1.206-18.861-4.185-19.787-6.079-45.97-7.155-59.819-2.459-18.533 6.285-25.285 23.164-21.41 53.523 3.104 24.316 6.853 39.546 29.888 121.412 22.047 78.352 27.455 110.719 23.021 137.757-5.893 35.93-32.173 62.305-71.074 71.331-18.48 4.288-54.878 3.845-75.22-0.916-22.259-5.209-85.366-27.555-88.291-31.263-2.257-2.862-10.087-35.738-8.818-37.028 0.403-0.41 8.667 1.711 18.363 4.714 12.318 3.814 23.407 5.433 36.803 5.373 34.463-0.155 44.339-9.795 44.339-43.279 0-21.878-4.795-43.446-26.825-120.651-20.848-73.063-25.416-93.46-27.388-122.298-2.389-34.924 5.615-57.456 27.402-77.139 26.575-24.009 69.754-32.303 120.977-23.239zM507.138 918.667c64.445 0 134.862-12 196.862-38 60-26 112-62 156-106s80-96 106-156c26-62 38-126 38-192s-12-130-38-192c-26-60-62-112-106-156s-96-80-156-106c-62-26-126-38-192-38s-130 12-192 38c-60 26-112 62-156 106s-80 96-106 156c-26 62-38 126-38 192s12 130 38 192c26 60 62 112 106 156s96 80 156 106c62 26 122.693 38 187.138 38z" />
<glyph unicode="&#xe611;" d="M512 938.667c70 0 130-26 180-76s76-110 76-180v-214c0-26-8-54-26-82-18-30-38-46-60-46v-64c0-6 2-12 6-18s8-12 12-14l306-196c6-4 10-8 12-14 4-8 6-14 6-20v-78c0-6-2-12-6-16s-10-6-16-6h-980c-6 0-12 2-16 6s-6 10-6 16v78c0 6 2 12 6 20 2 6 6 10 12 14l306 196c4 2 8 8 12 14s6 12 6 18v64c-22 0-42 16-60 46-18 28-26 56-26 82v214c0 70 26 130 76 180s110 76 180 76z" />
<glyph unicode="&#xe612;" d="M22 852.667h980c6 0 12-2 16-6s6-8 6-14v-896c0-6-2-12-6-16s-10-6-16-6h-980c-6 0-12 2-16 6s-6 10-6 16v896c0 6 2 10 6 14s10 6 16 6zM86 768.667v-86h84v86zM746 768.667h-468c-6 0-12-2-16-8-4-4-6-8-6-14v-298c0-6 2-12 6-16s10-6 16-6h468c6 0 12 2 16 6s6 10 6 16v298c0 6-2 10-6 14-4 6-10 8-16 8zM854 768.667v-86h84v86zM86 596.667v-84h84v84zM854 596.667v-84h84v84zM86 426.667v-86h84v86zM854 426.667v-86h84v86zM746 340.667h-468c-6 0-12-2-16-6s-6-8-6-14v-300c0-6 2-10 6-14s10-6 16-6h468c6 0 12 2 16 6s6 8 6 14v300c0 6-2 10-6 14s-10 6-16 6zM86 256.667v-86h84v86zM854 256.667v-86h84v86zM86 84.667v-84h84v84zM854 84.667v-84h84v84z" />
<glyph unicode="&#xe613;" d="M42 852.667h342c12 0 22-4 30-12s12-18 12-30v-342c0-12-4-22-12-30s-18-12-30-12h-342c-12 0-22 4-30 12s-12 18-12 30v342c0 12 4 22 12 30s18 12 30 12zM554 852.667h342c12 0 22-4 30-12s12-18 12-30v-342c0-12-4-22-12-30s-18-12-30-12h-342c-12 0-22 4-30 12s-12 18-12 30v342c0 12 4 22 12 30s18 12 30 12zM42 340.667h342c12 0 22-4 30-12s12-18 12-30v-342c0-12-4-22-12-30s-18-12-30-12h-342c-12 0-22 4-30 12s-12 18-12 30v342c0 12 4 22 12 30s18 12 30 12zM554 340.667h342c12 0 22-4 30-12s12-18 12-30v-342c0-12-4-22-12-30s-18-12-30-12h-342c-12 0-22 4-30 12s-12 18-12 30v342c0 12 4 22 12 30s18 12 30 12z" />
<glyph unicode="&#xe614;" d="M42 852.667h172c12 0 22-4 30-12s12-18 12-30v-170c0-12-4-22-12-30-8-10-18-14-30-14h-172c-12 0-22 4-30 14-8 8-12 18-12 30v170c0 12 4 22 12 30s18 12 30 12zM384 852.667h170c12 0 22-4 30-12 10-8 14-18 14-30v-170c0-12-4-22-14-30-8-10-18-14-30-14h-170c-12 0-22 4-30 14-8 8-12 18-12 30v170c0 12 4 22 12 30s18 12 30 12zM726 852.667h170c12 0 22-4 30-12s12-18 12-30v-170c0-12-4-22-12-30-8-10-18-14-30-14h-170c-12 0-22 4-30 14-10 8-14 18-14 30v170c0 12 4 22 14 30 8 8 18 12 30 12zM42 512.667h172c12 0 22-4 30-14 8-8 12-18 12-30v-170c0-12-4-22-12-30s-18-12-30-12h-172c-12 0-22 4-30 12s-12 18-12 30v170c0 12 4 22 12 30 8 10 18 14 30 14zM384 512.667h170c12 0 22-4 30-14 10-8 14-18 14-30v-170c0-12-4-22-14-30-8-8-18-12-30-12h-170c-12 0-22 4-30 12s-12 18-12 30v170c0 12 4 22 12 30 8 10 18 14 30 14zM726 512.667h170c12 0 22-4 30-14 8-8 12-18 12-30v-170c0-12-4-22-12-30s-18-12-30-12h-170c-12 0-22 4-30 12-10 8-14 18-14 30v170c0 12 4 22 14 30 8 10 18 14 30 14zM42 170.667h172c12 0 22-4 30-12s12-18 12-30v-172c0-12-4-22-12-30s-18-12-30-12h-172c-12 0-22 4-30 12s-12 18-12 30v172c0 12 4 22 12 30s18 12 30 12zM384 170.667h170c12 0 22-4 30-12 10-8 14-18 14-30v-172c0-12-4-22-14-30-8-8-18-12-30-12h-170c-12 0-22 4-30 12s-12 18-12 30v172c0 12 4 22 12 30s18 12 30 12zM726 170.667h170c12 0 22-4 30-12s12-18 12-30v-172c0-12-4-22-12-30s-18-12-30-12h-170c-12 0-22 4-30 12-10 8-14 18-14 30v172c0 12 4 22 14 30 8 8 18 12 30 12z" />
<glyph unicode="&#xe615;" d="M42 852.667h172c12 0 22-4 30-12s12-18 12-30v-170c0-12-4-22-12-30-8-10-18-14-30-14h-172c-12 0-22 4-30 14-8 8-12 18-12 30v170c0 12 4 22 12 30s18 12 30 12zM384 852.667h598c12 0 22-4 30-12s12-18 12-30v-170c0-12-4-22-12-30-8-10-18-14-30-14h-598c-12 0-22 4-30 14-8 8-12 18-12 30v170c0 12 4 22 12 30s18 12 30 12zM42 512.667h172c12 0 22-4 30-14 8-8 12-18 12-30v-170c0-12-4-22-12-30s-18-12-30-12h-172c-12 0-22 4-30 12s-12 18-12 30v170c0 12 4 22 12 30 8 10 18 14 30 14zM384 512.667h598c12 0 22-4 30-14 8-8 12-18 12-30v-170c0-12-4-22-12-30s-18-12-30-12h-598c-12 0-22 4-30 12s-12 18-12 30v170c0 12 4 22 12 30 8 10 18 14 30 14zM42 170.667h172c12 0 22-4 30-12s12-18 12-30v-172c0-12-4-22-12-30s-18-12-30-12h-172c-12 0-22 4-30 12s-12 18-12 30v172c0 12 4 22 12 30s18 12 30 12zM384 170.667h598c12 0 22-4 30-12s12-18 12-30v-172c0-12-4-22-12-30s-18-12-30-12h-598c-12 0-22 4-30 12s-12 18-12 30v172c0 12 4 22 12 30s18 12 30 12z" />
<glyph unicode="&#xe616;" d="M396 322.667l488 486c4 4 10 8 16 8s10-4 14-8l150-150c6-4 8-10 8-16 0-4-2-10-8-14l-668-670c-4-4-8-6-14-6s-12 2-16 6l-326 328c-6 4-8 10-8 16s2 10 8 14l150 150c4 6 10 8 14 8 6 0 12-2 16-8l146-144c4-4 10-6 16-6s10 2 14 6z" />
<glyph unicode="&#xe617;" d="M772 838.667l152-152c4-6 6-10 6-16s-2-12-6-16l-228-228 228-228c4-4 6-10 6-16s-2-10-6-16l-152-152c-6-4-10-6-16-6s-12 2-16 6l-228 228-228-228c-4-4-10-6-16-6s-10 2-16 6l-152 152c-4 6-6 10-6 16s2 12 6 16l228 228-228 228c-4 4-6 10-6 16s2 10 6 16l152 152c6 4 10 6 16 6s12-2 16-6l228-228 228 228c4 4 10 6 16 6s10-2 16-6z" />
<glyph unicode="&#xe618;" d="M432 918.667c56 0 110-10 160-32 52-22 96-52 132-88 38-38 66-82 88-132 22-52 34-104 34-160 0-80-22-156-66-224l256-256c4-4 6-10 6-16s-2-10-6-14l-94-94c-4-4-8-6-14-6s-12 2-16 6l-256 256c-68-44-142-66-224-66-56 0-108 12-160 34-50 22-94 50-132 88-36 36-66 80-88 130-22 52-32 106-32 162s10 108 32 160c22 50 52 94 88 132 38 36 82 66 132 88 52 22 104 32 160 32zM432 786.667c-50 0-98-12-142-36-42-26-76-60-102-104-24-42-36-90-36-142 0-50 12-98 36-140 26-44 60-78 102-102 44-26 92-38 142-38 52 0 98 12 142 38 44 24 78 58 102 102 26 42 38 90 38 140 0 52-12 100-38 142-24 44-58 78-102 104-44 24-90 36-142 36zM362 682.667h128c6 0 12-2 16-6s6-10 6-16v-64h64c6 0 10-2 14-6 6-4 8-8 8-14v-128c0-6-2-12-8-16-4-4-8-6-14-6h-64v-64c0-6-2-10-6-14-4-6-10-8-16-8h-128c-6 0-10 2-14 8-4 4-6 8-6 14v64h-64c-6 0-12 2-16 6s-6 10-6 16v128c0 6 2 10 6 14s10 6 16 6h64v64c0 6 2 12 6 16s8 6 14 6z" />
<glyph unicode="&#xe619;" d="M432 918.667c56 0 110-10 160-32 52-22 96-52 132-88 38-38 66-82 88-132 22-52 34-104 34-160 0-80-22-156-66-224l256-256c4-4 6-10 6-16s-2-10-6-14l-94-94c-4-4-8-6-14-6s-12 2-16 6l-256 256c-68-44-142-66-224-66-56 0-108 12-160 34-50 22-94 50-132 88-36 36-66 80-88 130-22 52-32 106-32 162s10 108 32 160c22 50 52 94 88 132 38 36 82 66 132 88 52 22 104 32 160 32zM432 786.667c-50 0-98-12-142-36-42-26-76-60-102-104-24-42-36-90-36-142 0-50 12-98 36-140 26-44 60-78 102-102 44-26 92-38 142-38 52 0 98 12 142 38 44 24 78 58 102 102 26 42 38 90 38 140 0 52-12 100-38 142-24 44-58 78-102 104-44 24-90 36-142 36zM278 596.667h298c6 0 10-2 14-6 6-4 8-8 8-14v-128c0-6-2-12-8-16-4-4-8-6-14-6h-298c-6 0-12 2-16 6s-6 10-6 16v128c0 6 2 10 6 14s10 6 16 6z" />
<glyph unicode="&#xe61a;" d="M470 938.667h84c12 0 22-4 30-12 10-8 14-18 14-30v-342c0-12-4-22-14-30-8-8-18-12-30-12h-84c-12 0-22 4-30 12-10 8-14 18-14 30v342c0 12 4 22 14 30 8 8 18 12 30 12zM682 746.667v142c96-36 174-96 232-180 60-84 90-178 90-282 0-66-12-130-38-192-26-60-62-112-106-156s-96-80-156-106c-62-26-126-38-192-38s-130 12-192 38c-60 26-112 62-156 106s-80 96-106 156c-26 62-38 126-38 192 0 104 30 198 90 282 58 84 136 144 232 180v-142c-60-32-106-76-142-132-34-58-52-120-52-188 0-66 16-128 48-184s76-100 132-132c56-32 118-48 184-48s128 16 184 48c56 32 100 76 132 132s48 118 48 184c0 68-18 130-52 188-36 56-82 100-142 132z" />
<glyph unicode="&#xe61b;" d="M874 938.667h128c6 0 12-2 16-6s6-10 6-16v-980c0-6-2-12-6-16s-10-6-16-6h-128c-6 0-10 2-14 6s-6 10-6 16v980c0 6 2 12 6 16s8 6 14 6zM618 596.667h128c6 0 12-2 16-6s6-8 6-14v-640c0-6-2-12-6-16s-10-6-16-6h-128c-6 0-10 2-14 6s-6 10-6 16v640c0 6 2 10 6 14s8 6 14 6zM362 340.667h128c6 0 12-2 16-6s6-8 6-14v-384c0-6-2-12-6-16s-10-6-16-6h-128c-6 0-10 2-14 6s-6 10-6 16v384c0 6 2 10 6 14s8 6 14 6zM106 170.667h128c6 0 12-2 16-6s6-10 6-16v-212c0-6-2-12-6-16s-10-6-16-6h-128c-6 0-10 2-14 6s-6 10-6 16v212c0 6 2 12 6 16s8 6 14 6z" />
<glyph unicode="&#xe61c;" d="M512 916.667c18 0 40-2 64-4l32-130 4-2c28-6 54-18 80-32l4-2 114 68c36-28 64-56 90-90l-68-114 2-4c14-24 26-52 32-80l2-4 130-32c2-26 4-46 4-64s-2-40-4-62l-130-32-2-6c-8-28-18-54-32-80l-2-4 68-114c-28-34-58-64-90-90l-114 70-4-2c-24-16-52-26-80-34l-4-2-32-128c-26-4-46-4-64-4s-40 0-64 4l-32 128-4 2c-28 8-54 18-80 34l-4 2-114-70c-34 28-64 58-90 90l68 114-2 4c-14 26-24 52-32 80l-2 6-128 32c-4 24-6 44-6 62 0 20 2 40 6 64l128 32 2 4c8 28 18 54 32 80l2 4-68 114c28 36 58 66 90 90l114-68 4 2c26 14 52 26 80 32l4 2 32 130c26 2 46 4 64 4zM512 610.667c-50 0-94-18-130-54s-54-80-54-130c0-50 18-94 54-128 36-36 80-54 130-54s94 18 130 54c36 34 54 78 54 128s-18 94-54 130c-36 36-80 54-130 54z" />
<glyph unicode="&#xe61d;" d="M426 1024.667h256c24 0 44-10 60-26 18-16 26-36 26-60v-86h234c6 0 12-2 16-6s6-8 6-14v-64h-938v64c0 6 2 10 6 14s8 6 14 6h236v86c0 24 8 44 24 60 18 16 38 26 60 26zM426 938.667v-86h256v86zM938 682.667v-682c0-24-8-44-24-60-18-18-38-26-60-26h-598c-24 0-44 8-60 26-16 16-26 36-26 60v682zM256 596.667v-596h86v596zM426 596.667v-596h86v596zM598 596.667v-596h84v596zM768 596.667v-596h86v596z" />
<glyph unicode="&#xe61e;" d="M16 442.667l528 518c4 4 10 6 16 6s12-2 16-6l518-518c4-6 6-8 4-12 0-2-4-4-10-4h-150v-490c0-6-2-12-6-16s-8-6-14-6h-214c-6 0-10 2-14 6-6 4-8 10-8 16v320h-256v-320c0-6-2-12-6-16s-8-6-14-6h-214c-6 0-10 2-14 6-6 4-8 10-8 16v490h-148c-6 0-10 2-12 4 0 4 0 6 6 12z" />
<glyph unicode="&#xe61f;" d="M512 938.667v-342c0-22 8-42 26-60 16-16 36-24 60-24h256v-556c0-12-4-22-14-30-8-8-18-12-30-12h-682c-12 0-22 4-30 12s-12 18-12 30v940c0 12 4 22 12 30s18 12 30 12zM854 596.667h-214c-12 0-22 4-30 14-8 8-12 18-12 30v212z" />
<glyph unicode="&#xe620;" d="M512 918.667c66 0 130-12 192-38 60-26 112-62 156-106s80-96 106-156c26-62 38-126 38-192s-12-130-38-192c-26-60-62-112-106-156s-96-80-156-106c-62-26-126-38-192-38s-130 12-192 38c-60 26-112 62-156 106s-80 96-106 156c-26 62-38 126-38 192s12 130 38 192c26 60 62 112 106 156s96 80 156 106c62 26 126 38 192 38zM512 790.667c-66 0-128-16-184-48s-100-76-132-132c-32-56-48-118-48-184s16-128 48-184c32-56 76-100 132-132s118-48 184-48c66 0 128 16 184 48s100 76 132 132c32 56 48 118 48 184s-16 128-48 184c-32 56-76 100-132 132s-118 48-184 48zM448 682.667h42c6 0 12-2 16-6s6-10 6-16v-234h150c6 0 10-2 14-6s6-10 6-16v-42c0-6-2-10-6-14-4-6-8-8-14-8h-214c-6 0-10 2-14 8-6 4-8 8-8 14v298c0 6 2 12 8 16 4 4 8 6 14 6z" />
<glyph unicode="&#xe621;" d="M1110-85.333h-460l-34 342h-208l-34-342h-460l368 1024h178l-18-256h140l-18 256h178zM440 596.667l-24-256h192l-24 256z" />
<glyph unicode="&#xe622;" d="M470 938.667h170c12 0 22-4 30-12s12-18 12-30v-384h164c12 0 18-4 22-10 2-8 0-14-6-24l-280-342c-8-8-16-12-28-12-10 0-20 4-26 12l-280 342c-8 10-10 16-6 24 4 6 10 10 22 10h162v384c0 12 4 22 14 30 8 8 18 12 30 12zM960 256.667h42c6 0 12-2 16-8 4-4 6-8 6-14v-298c0-6-2-12-6-16s-10-6-16-6h-896c-6 0-10 2-14 6s-6 10-6 16v298c0 6 2 10 6 14 4 6 8 8 14 8h44c6 0 10-2 14-8 4-4 6-8 6-14v-150h768v150c0 6 2 10 8 14 4 6 8 8 14 8z" />
<glyph unicode="&#xe623;" d="M512 918.667c66 0 130-12 192-38 60-26 112-62 156-106s80-96 106-156c26-62 38-126 38-192s-12-130-38-192c-26-60-62-112-106-156s-96-80-156-106c-62-26-126-38-192-38s-130 12-192 38c-60 26-112 62-156 106s-80 96-106 156c-26 62-38 126-38 192s12 130 38 192c26 60 62 112 106 156s96 80 156 106c62 26 126 38 192 38zM512 790.667c-66 0-128-16-184-48s-100-76-132-132c-32-56-48-118-48-184s16-128 48-184c32-56 76-100 132-132s118-48 184-48c66 0 128 16 184 48s100 76 132 132c32 56 48 118 48 184s-16 128-48 184c-32 56-76 100-132 132s-118 48-184 48zM448 682.667h128c6 0 10-2 14-6 6-4 8-10 8-16v-234h116c12 0 20-4 22-10 4-6 0-14-6-24l-190-234c-8-10-18-14-28-14s-20 4-28 14l-190 234c-6 10-10 18-6 24 2 6 10 10 22 10h116v234c0 6 2 12 8 16 4 4 8 6 14 6z" />
<glyph unicode="&#xe624;" d="M512 918.667c66 0 130-12 192-38 60-26 112-62 156-106s80-96 106-156c26-62 38-126 38-192s-12-130-38-192c-26-60-62-112-106-156s-96-80-156-106c-62-26-126-38-192-38s-130 12-192 38c-60 26-112 62-156 106s-80 96-106 156c-26 62-38 126-38 192s12 130 38 192c26 60 62 112 106 156s96 80 156 106c62 26 126 38 192 38zM512 790.667c-66 0-128-16-184-48s-100-76-132-132c-32-56-48-118-48-184s16-128 48-184c32-56 76-100 132-132s118-48 184-48c66 0 128 16 184 48s100 76 132 132c32 56 48 118 48 184s-16 128-48 184c-32 56-76 100-132 132s-118 48-184 48zM540 694.667l190-234c6-10 10-18 6-24-2-6-10-10-22-10h-116v-234c0-6-2-12-8-16-4-4-8-6-14-6h-128c-6 0-10 2-14 6-6 4-8 10-8 16v234h-116c-12 0-20 4-22 10-4 6 0 14 6 24l190 234c8 10 18 14 28 14s20-4 28-14z" />
<glyph unicode="&#xe625;" d="M192 938.667h640c6 0 12-2 16-6 6-4 10-8 12-14l158-556c4-14 6-28 6-42v-364c0-6-2-14-4-22s-4-14-8-14c-6-4-16-6-30-6h-940c-6 0-14 2-22 4s-14 4-14 6c-4 8-6 18-6 32v364c0 14 2 28 6 42l158 556c2 6 6 10 12 14 4 4 10 6 16 6zM750 768.667h-476c-4 0-10-2-16-6-4-4-8-10-8-16l-76-384c0-6 0-12 4-16s8-6 14-6h128c6 0 12-2 16-6 6-4 10-8 10-14l32-130c2-6 6-10 10-14 6-4 12-6 18-6h212c6 0 12 2 18 6 4 4 8 8 10 14l32 130c0 6 4 10 10 14 4 4 10 6 16 6h128c6 0 10 2 14 6s4 10 4 16l-76 384c0 6-4 12-8 16-6 4-12 6-16 6z" />
<glyph unicode="&#xe626;" d="M512 918.667c66 0 130-12 192-38 60-26 112-62 156-106s80-96 106-156c26-62 38-126 38-192s-12-130-38-192c-26-60-62-112-106-156s-96-80-156-106c-62-26-126-38-192-38s-130 12-192 38c-60 26-112 62-156 106s-80 96-106 156c-26 62-38 126-38 192s12 130 38 192c26 60 62 112 106 156s96 80 156 106c62 26 126 38 192 38zM512 790.667c-66 0-128-16-184-48s-100-76-132-132c-32-56-48-118-48-184s16-128 48-184c32-56 76-100 132-132s118-48 184-48c66 0 128 16 184 48s100 76 132 132c32 56 48 118 48 184s-16 128-48 184c-32 56-76 100-132 132s-118 48-184 48zM460 614.667l216-162c10-8 16-16 16-26s-6-18-16-26l-216-162c-8-6-16-8-24-6-6 4-10 12-10 24v340c0 12 4 20 10 24 8 2 16 0 24-6z" />
<glyph unicode="&#xe627;" d="M808 818.667l116 116c4 4 6 6 10 4s4-4 4-12v-308c0-6-2-10-6-14-4-6-8-8-14-8h-310c-6 0-10 2-10 6-2 2 0 6 4 10l114 114c-62 42-130 64-204 64-66 0-128-16-184-48s-100-76-132-132c-32-56-48-118-48-184s16-128 48-184c32-56 76-100 132-132s118-48 184-48c66 0 128 16 184 48s100 76 132 132c32 56 48 118 48 184h128c0-66-12-130-38-192-26-60-62-112-106-156s-96-80-156-106c-62-26-126-38-192-38s-130 12-192 38c-60 26-112 62-156 106s-80 96-106 156c-26 62-38 126-38 192s12 130 38 192c26 60 62 112 106 156s96 80 156 106c62 26 126 38 192 38 110 0 208-32 296-100z" />
<glyph unicode="&#xe628;" d="M808 818.667l116 116c4 4 6 6 10 4s4-4 4-12v-308c0-6-2-10-6-14-4-6-10-8-16-8h-308c-6 0-10 2-10 6-2 2 0 6 4 10l114 114c-62 44-130 64-204 64-66 0-128-16-184-48s-100-76-132-132c-32-56-48-118-48-184h-128c0 66 12 130 38 192 26 60 62 112 106 156s96 80 156 106c62 26 126 38 192 38 110 0 208-32 296-100zM876 426.667h128c0-66-12-130-38-192-26-60-62-112-106-156s-96-80-156-106c-62-26-126-38-192-38-110 0-208 34-296 100l-116-114c-4-4-6-6-10-4-4 0-4 4-4 10v308c0 6 2 10 6 14 4 6 10 8 16 8h306c6 0 10-2 12-6 0-2 0-6-6-10l-112-114c62-42 130-64 204-64 66 0 128 16 184 48s100 76 132 132c32 56 48 118 48 184z" />
<glyph unicode="&#xe629;" d="M106 938.667h896c6 0 12-2 16-6s6-10 6-16v-980c0-6-2-12-6-16s-10-6-16-6h-896c-6 0-10 2-14 6s-6 10-6 16v980c0 6 2 12 6 16s8 6 14 6zM918 768.667h-726c-6 0-10-2-14-8-6-4-8-8-8-14v-726c0-6 2-10 8-14 4-4 8-6 14-6h726c6 0 10 2 14 6s6 8 6 14v726c0 6-2 10-6 14-4 6-8 8-14 8zM278 682.667h42c6 0 10-2 14-6 6-4 8-10 8-16v-42c0-6-2-10-8-14-4-6-8-8-14-8h-42c-6 0-12 2-16 8-4 4-6 8-6 14v42c0 6 2 12 6 16s10 6 16 6zM448 682.667h384c6 0 10-2 14-6 6-4 8-10 8-16v-42c0-6-2-10-8-14-4-6-8-8-14-8h-384c-6 0-10 2-14 8-6 4-8 8-8 14v42c0 6 2 12 8 16 4 4 8 6 14 6zM278 512.667h42c6 0 10-2 14-8 6-4 8-8 8-14v-42c0-6-2-12-8-16-4-4-8-6-14-6h-42c-6 0-12 2-16 6s-6 10-6 16v42c0 6 2 10 6 14 4 6 10 8 16 8zM448 512.667h384c6 0 10-2 14-8 6-4 8-8 8-14v-42c0-6-2-12-8-16-4-4-8-6-14-6h-384c-6 0-10 2-14 6-6 4-8 10-8 16v42c0 6 2 10 8 14 4 6 8 8 14 8zM278 340.667h42c6 0 10-2 14-6 6-4 8-8 8-14v-44c0-6-2-10-8-14-4-4-8-6-14-6h-42c-6 0-12 2-16 6s-6 8-6 14v44c0 6 2 10 6 14s10 6 16 6zM448 340.667h384c6 0 10-2 14-6 6-4 8-8 8-14v-44c0-6-2-10-8-14-4-4-8-6-14-6h-384c-6 0-10 2-14 6-6 4-8 8-8 14v44c0 6 2 10 8 14 4 4 8 6 14 6zM278 170.667h42c6 0 10-2 14-6 6-4 8-10 8-16v-42c0-6-2-10-8-14-4-6-8-8-14-8h-42c-6 0-12 2-16 8-4 4-6 8-6 14v42c0 6 2 12 6 16s10 6 16 6zM448 170.667h384c6 0 10-2 14-6 6-4 8-10 8-16v-42c0-6-2-10-8-14-4-6-8-8-14-8h-384c-6 0-10 2-14 8-6 4-8 8-8 14v42c0 6 2 12 8 16 4 4 8 6 14 6z" />
<glyph unicode="&#xe62a;" d="M768 596.667v172c0 46-16 86-50 120s-74 50-120 50h-256c-48 0-88-16-120-50-34-34-52-74-52-120v-172h-84c-24 0-44-8-60-24-18-18-26-38-26-60v-512c0-24 8-44 26-60 16-18 36-26 60-26h768c22 0 42 8 60 26 16 16 24 36 24 60v512c0 22-8 42-24 60-18 16-38 24-60 24zM342 596.667v128c0 12 4 22 12 30 8 10 18 14 30 14h170c12 0 22-4 30-14 10-8 14-18 14-30v-128z" />
<glyph unicode="&#xe62b;" d="M106 852.667h44c6 0 10-2 14-6s6-8 6-14v-918h-84v918c0 6 2 10 6 14s8 6 14 6zM918 812.667c2 0 4 0 8-2 8-4 12-10 12-20v-358c0-4 0-8-2-12-18-32-38-60-56-84-20-22-38-38-56-50-18-10-34-16-48-20s-30-6-46-6c-14 0-30 2-48 6s-34 8-46 12c-12 4-28 10-50 18-24 8-42 14-54 18s-30 10-50 14c-20 4-38 6-56 6-48 0-94-16-136-48-4-4-8-6-12-6s-8 2-10 4c-8 4-12 10-12 18v374c12 32 36 60 70 84s68 38 102 40c12 0 24 2 36 0 12 0 24-2 36-6 14-2 24-6 28-8 6 0 16-4 34-10 16-6 24-8 26-10 24-8 42-14 54-18 14-4 30-8 50-12s38-6 54-6c58 0 110 26 156 74 4 6 10 8 16 8z" />
<glyph unicode="&#xe62c;" d="M512 916.667c66 0 130-14 194-42 62-28 118-64 164-112 46-46 84-100 112-164 28-62 42-128 42-194v-256c0-6-2-10-6-14s-10-6-16-6h-42c-6 0-10 2-14 6-6 4-8 8-8 14v256c0 72-20 138-60 198s-92 106-156 138c-66 32-136 48-210 48s-144-16-210-48c-64-32-116-78-156-138s-60-126-60-198v-256c0-6-2-10-8-14-4-4-8-6-14-6h-42c-6 0-12 2-16 6s-6 8-6 14v256c0 66 14 132 42 194 28 64 66 118 112 164 46 48 102 84 164 112 64 28 128 42 194 42zM188 340.667h136c4 0 8-2 12-4 4-4 6-8 6-12v-392c0-6-2-10-6-12-4-4-8-6-12-6h-136c-4 0-8 2-12 6-4 2-6 6-6 12v392c0 4 2 8 6 12 4 2 8 4 12 4zM700 340.667h136c4 0 8-2 12-4 4-4 6-8 6-12v-392c0-6-2-10-6-12-4-4-8-6-12-6h-136c-4 0-8 2-12 6-4 2-6 6-6 12v392c0 4 2 8 6 12 4 2 8 4 12 4z" />
<glyph unicode="&#xe62d;" d="M274 608.667l220 148c6 2 10 4 12 2 4-2 6-6 6-12v-640c0-6-2-10-6-12-2-2-6 0-12 2l-220 148c-12 8-26 12-40 12h-212c-6 0-12 2-16 6s-6 8-6 14v300c0 6 2 10 6 14s10 6 16 6h212c14 0 28 4 40 12zM768 484.667l102 102c4 4 10 6 14 6 6 0 12-2 16-6l28-28c4-4 6-10 6-16 0-4-2-10-6-14l-102-102 102-102c4-4 6-10 6-14 0-6-2-12-6-16l-28-28c-4-4-10-6-16-6-4 0-10 2-14 6l-102 102-102-102c-4-4-10-6-14-6-6 0-12 2-16 6l-28 28c-4 4-6 10-6 16 0 4 2 10 6 14l102 102-102 102c-4 4-6 10-6 14 0 6 2 12 6 16l28 28c4 4 10 8 16 8 4 0 10-4 14-8z" />
<glyph unicode="&#xe62e;" d="M274 608.667l220 148c6 2 10 4 12 2 4-2 6-6 6-12v-640c0-6-2-10-6-12-2-2-6 0-12 2l-220 148c-12 8-26 12-40 12h-212c-6 0-12 2-16 6s-6 8-6 14v300c0 6 2 10 6 14s10 6 16 6h212c14 0 28 4 40 12zM654 682.667h4c4 0 10-4 12-8 56-74 82-156 82-248 0-88-24-168-76-240-4-4-8-8-14-8l-4-2c-4 0-8 2-12 6l-26 20c-4 4-6 8-6 14-2 6 0 10 2 14 42 60 62 124 62 196 0 76-22 142-66 204-4 4-4 8-4 14s4 10 8 14l24 20c4 2 10 4 14 4z" />
<glyph unicode="&#xe62f;" d="M826 770.667h2c6 0 10-2 14-8 78-102 116-214 116-338 0-60-10-118-30-176-18-58-46-110-84-158-4-6-8-8-14-8h-2c-6 0-10 0-14 4l-36 30c-4 2-6 8-8 14 0 4 2 10 4 14 64 86 96 180 96 280 0 52-8 102-26 150-16 50-40 94-72 134-4 6-4 10-4 16s4 10 8 14l36 28c4 4 8 4 14 4zM274 608.667l220 148c6 2 10 4 12 2 4-2 6-6 6-12v-640c0-6-2-10-6-12-2-2-6 0-12 2l-220 148c-12 8-26 12-40 12h-212c-6 0-12 2-16 6s-6 8-6 14v300c0 6 2 10 6 14s10 6 16 6h212c14 0 28 4 40 12zM654 682.667h4c4 0 10-4 12-8 56-74 82-156 82-248 0-88-24-168-76-240-4-4-8-8-14-8l-4-2c-4 0-8 2-12 6l-26 20c-4 4-6 8-6 14-2 6 0 10 2 14 42 60 62 124 62 196 0 76-22 142-66 204-4 4-4 8-4 14s4 12 8 14l24 20c4 2 10 4 14 4z" />
<glyph unicode="&#xe630;" d="M426 682.667h86v-86h-86v-84h-340v-86h-86v512h426zM1024 512.667h-170v-86h170v-170h-256v256h-170v256h-86v170h512zM86 852.667v-256h256v256zM682 852.667v-256h256v256zM256 682.667h-86v86h86zM854 682.667h-86v86h86zM256 340.667h170v-426h-426v426h170v86h86zM682 170.667h172v-86h-86v-84h-170v84h-86v86h86v170h-172v86h256zM86 256.667v-256h256v256zM256 84.667h-86v86h86zM1024 84.667h-86v86h86zM598-85.333h-86v86h86zM1024-85.333h-256v86h256z" />
<glyph unicode="&#xe631;" d="M86 84.667h-86v854h86zM256 84.667h-86v854h86zM598 84.667h-172v854h172zM768 84.667h-86v854h86zM1024 84.667h-170v854h170zM342-85.333h-256v86h256zM512-85.333h-86v78h86zM682-85.333h-84v78h84zM938-85.333h-170v78h170z" />
<glyph unicode="&#xe632;" d="M426 938.667l582-582c6-4 8-10 8-16s-2-10-8-14l-396-396c-4-6-8-8-14-8s-12 2-16 8l-582 582v404c0 6 2 12 8 16 4 4 8 6 14 6zM272 788.667c-16 18-36 26-60 26s-44-8-60-26c-18-16-26-36-26-60s8-46 26-62c16-16 36-24 60-24s44 8 60 24c18 16 26 38 26 62s-8 44-26 60z" />
<glyph unicode="&#xe633;" d="M426 938.667l582-582c6-4 8-10 8-16s-2-10-8-14l-396-396c-4-6-8-8-14-8s-12 2-16 8l-582 582v404c0 6 2 12 8 16 4 4 8 6 14 6zM682 938.667l582-582c6-4 8-10 8-16s-2-10-8-14l-396-396c-4-6-8-8-14-8s-12 2-16 8l-48 48 362 362-598 598zM272 788.667c-16 18-36 26-60 26s-44-8-60-26c-18-16-26-36-26-60s8-46 26-62c16-16 36-24 60-24s44 8 60 24c18 16 26 38 26 62s-8 44-26 60z" />
<glyph unicode="&#xe634;" d="M256 938.667h704c42 0 64-22 64-64v-768c0-14-6-26-16-36l-54-56c-4-4-8-6-12-4-2 2-4 4-4 10v812c0 6-2 10-6 14s-8 6-14 6h-598c-14 0-26-4-36-14l-56-56c-4-4-6-8-4-10 2-4 4-4 10-4h598c6 0 10-2 14-8 6-4 8-8 8-14v-810c0-6-2-12-8-16-4-4-8-6-14-6h-726c-6 0-10 2-14 6s-6 10-6 16v832c0 14 4 26 14 36l120 118c10 10 22 16 36 16z" />
<glyph unicode="&#xe635;" d="M214 938.667h682c12 0 22-4 30-12s12-18 12-30v-982l-384 378-384-378v982c0 12 4 22 14 30 8 8 18 12 30 12z" />
<glyph unicode="&#xe636;" d="M702 938.667h-380c-6 0-12-2-16-6s-6-10-8-16l-66-256c-4-14-2-26 6-38l48-92c4-6 10-10 16-14 6-2 12-4 18-4h384c6 0 12 2 18 4 6 4 12 8 16 14l52 92c8 12 10 24 6 38l-70 256c-2 6-4 12-8 16s-10 6-16 6zM1002 596.667h-128c-6 0-10-2-18-4-6-4-10-8-12-14l-66-134c-2-4-8-8-14-12s-12-6-18-6h-468c-6 0-12 2-18 6s-12 8-14 12l-66 134c-2 6-6 10-12 14-8 2-12 4-18 4h-128c-6 0-12-2-16-6s-6-8-6-14v-556c0-6 2-10 6-14s10-6 16-6h128c6 0 10 2 14 6s6 8 6 14v128c0 6 2 12 8 16 4 4 8 6 14 6h640c6 0 10-2 14-6 6-4 8-10 8-16v-128c0-6 2-10 6-14s8-6 14-6h128c6 0 12 2 16 6s6 8 6 14v556c0 6-2 10-6 14s-10 6-16 6zM726 84.667h-428c-6 0-10-2-16-6s-8-8-10-14l-32-130c-2-6 0-10 2-14 4-4 8-6 14-6h512c6 0 10 2 14 6 2 4 4 8 2 14l-32 130c-2 6-4 10-10 14s-10 6-16 6z" />
<glyph unicode="&#xe637;" d="M426 852.667h172c32 0 60-6 86-16 28-12 48-26 62-44 16-16 28-34 38-50s18-30 22-42l4-18h128c24 0 44-8 60-26 18-16 26-36 26-60v-512c0-22-8-42-26-60-16-16-36-24-60-24h-852c-24 0-44 8-60 24-18 18-26 38-26 60v512c0 24 8 44 26 60 16 18 36 26 60 26h128c0 4 2 10 4 18 4 8 10 22 22 42 10 18 24 36 38 52 14 14 34 28 62 40 26 12 54 18 86 18zM768 596.667v-84h86v84zM512 536.667c-54 0-100-18-138-56-40-40-58-86-58-140s18-100 58-138c38-38 84-58 138-58s100 20 138 58c40 38 58 84 58 138s-18 100-58 140c-38 38-84 56-138 56zM512 428.667c24 0 46-8 62-26 18-16 26-36 26-62 0-24-8-44-26-62-16-16-38-26-62-26s-46 10-62 26c-18 18-26 38-26 62 0 26 8 46 26 62 16 18 38 26 62 26z" />
<glyph unicode="&#xe638;" d="M582 938.667l328-852c12-28 28-56 50-78 12-12 22-20 32-26s18-10 24-10l8-2v-56h-356v56c30 0 52 12 64 38 12 24 14 50 4 74l-70 190h-334c-32-82-58-148-78-200-6-18-8-34-6-48 4-14 10-24 22-32s26-14 40-16c14-4 30-6 46-6v-56h-310v56c32 14 54 28 70 44 8 8 14 16 22 26 8 12 14 20 18 28l6 10 340 860zM354 358.667h292l-140 390z" />
<glyph unicode="&#xe639;" d="M642 460.667c4 0 8 0 12-2 6-2 16-8 32-14 14-6 30-14 42-22 14-8 30-20 46-34 18-16 32-30 44-48 12-16 22-36 30-60 8-22 12-48 12-74 0-38-8-74-24-106-14-34-36-62-60-84-26-22-54-40-84-56-32-16-62-28-92-34-32-8-60-12-88-12h-426v76c22 4 42 14 60 28 16 14 24 32 24 56v706c0 12 0 22 0 28s-2 12-2 20c-2 8-4 14-8 18-4 2-8 6-14 10-8 6-16 10-24 12-10 2-22 6-36 10v60h402c32 0 64-6 98-18s64-28 92-48c28-22 52-48 68-82 18-32 28-68 28-106 0-28-6-56-14-82s-20-46-32-64c-14-16-26-30-38-42-14-12-24-22-34-26zM342 512.667h118c44 0 82 14 112 40 30 28 44 64 44 106 0 22-2 42-8 60-4 16-12 32-24 46-12 16-30 26-54 34s-52 12-88 12h-100zM342 84.667h184c46 0 80 16 102 44 24 28 36 66 36 112 0 50-18 94-54 130-34 38-80 56-132 56h-136z" />
<glyph unicode="&#xe63a;" d="M748 938.667l2-48c-48-12-80-24-98-40-20-14-32-34-36-56l-112-716c-4-28-2-48 12-60 12-10 40-18 82-22v-82h-428v82c106 10 164 38 172 84l146 710c2 10 4 18 4 26s0 14-2 20c0 4-4 10-8 14s-8 8-10 10c-4 4-10 6-20 10-8 2-16 4-22 6s-14 6-28 10c-8 0-12 2-16 4v48z" />
<glyph unicode="&#xe63b;" d="M1110 682.667h-44c0 12 0 22-2 32-4 8-6 16-8 22-4 6-10 12-16 16-8 4-14 6-18 8-6 2-14 4-26 6-10 0-18 0-26 0-6 2-18 2-32 2h-170v-726c0-12 8-22 22-30 14-6 28-10 42-10l22-2v-86h-342v86c2 0 6 0 10 0s10 0 20 2c10 2 18 4 26 6 6 2 14 8 20 14s10 12 10 20v726h-172c-14 0-24 0-30-2-8 0-16 0-28 0-10-2-18-4-24-6s-12-4-18-8c-8-4-12-10-16-16-2-6-6-14-8-22-2-10-4-20-4-32h-42v256h854zM150 768.667h-64v-684h64l-108-142-106 142h64v684h-64l106 142z" />
<glyph unicode="&#xe63c;" d="M938 682.667h-42c0 12-2 22-4 32-2 8-4 16-8 22-2 6-8 12-14 16-8 4-14 6-20 8s-14 4-24 6c-10 0-20 0-26 0-8 2-18 2-32 2h-170v-556c0-12 6-22 20-28 14-8 30-12 44-12l20-2v-86h-340v86c2 0 4 0 8 0s12 2 22 2c8 2 18 4 24 6 8 4 16 8 22 14s8 12 8 20v556h-170c-14 0-24 0-32-2-6 0-16 0-26 0-10-2-18-4-24-6s-12-4-20-8c-6-4-12-10-14-16-4-6-6-14-8-22-2-10-4-20-4-32h-42v256h852zM996-43.333l-142-106v64h-684v-64l-142 106 142 108v-64h684v64z" />
<glyph unicode="&#xe63d;" d="M42 852.667h512c12 0 22-4 30-12 10-8 14-18 14-30v-86c0-12-4-22-14-30-8-8-18-12-30-12h-512c-12 0-22 4-30 12s-12 18-12 30v86c0 12 4 22 12 30s18 12 30 12zM42 596.667h854c12 0 22-4 30-12s12-18 12-30v-86c0-12-4-22-12-30s-18-12-30-12h-854c-12 0-22 4-30 12s-12 18-12 30v86c0 12 4 22 12 30s18 12 30 12zM42 340.667h684c12 0 22-4 30-12s12-18 12-30v-86c0-12-4-22-12-30s-18-12-30-12h-684c-12 0-22 4-30 12s-12 18-12 30v86c0 12 4 22 12 30s18 12 30 12zM42 84.667h940c12 0 22-4 30-12s12-18 12-30v-86c0-12-4-22-12-30s-18-12-30-12h-940c-12 0-22 4-30 12s-12 18-12 30v86c0 12 4 22 12 30s18 12 30 12z" />
<glyph unicode="&#xe63e;" d="M214 852.667h596c12 0 22-4 30-12 10-8 14-18 14-30v-86c0-12-4-22-14-30-8-8-18-12-30-12h-596c-12 0-22 4-30 12-10 8-14 18-14 30v86c0 12 4 22 14 30 8 8 18 12 30 12zM42 596.667h940c12 0 22-4 30-12s12-18 12-30v-86c0-12-4-22-12-30s-18-12-30-12h-940c-12 0-22 4-30 12s-12 18-12 30v86c0 12 4 22 12 30s18 12 30 12zM214 340.667h596c12 0 22-4 30-12 10-8 14-18 14-30v-86c0-12-4-22-14-30-8-8-18-12-30-12h-596c-12 0-22 4-30 12-10 8-14 18-14 30v86c0 12 4 22 14 30 8 8 18 12 30 12zM42 84.667h940c12 0 22-4 30-12s12-18 12-30v-86c0-12-4-22-12-30s-18-12-30-12h-940c-12 0-22 4-30 12s-12 18-12 30v86c0 12 4 22 12 30s18 12 30 12z" />
<glyph unicode="&#xe63f;" d="M426 724.667v86c0 12 4 22 14 30 8 8 18 12 30 12h512c12 0 22-4 30-12s12-18 12-30v-86c0-12-4-22-12-30s-18-12-30-12h-512c-12 0-22 4-30 12-10 8-14 18-14 30zM86 468.667v86c0 12 4 22 12 30s18 12 30 12h854c12 0 22-4 30-12s12-18 12-30v-86c0-12-4-22-12-30s-18-12-30-12h-854c-12 0-22 4-30 12s-12 18-12 30zM256 212.667v86c0 12 4 22 12 30s18 12 30 12h684c12 0 22-4 30-12s12-18 12-30v-86c0-12-4-22-12-30s-18-12-30-12h-684c-12 0-22 4-30 12s-12 18-12 30zM0-43.333v86c0 12 4 22 12 30s18 12 30 12h940c12 0 22-4 30-12s12-18 12-30v-86c0-12-4-22-12-30s-18-12-30-12h-940c-12 0-22 4-30 12s-12 18-12 30z" />
<glyph unicode="&#xe640;" d="M42 852.667h940c12 0 22-4 30-12s12-18 12-30v-86c0-12-4-22-12-30s-18-12-30-12h-940c-12 0-22 4-30 12s-12 18-12 30v86c0 12 4 22 12 30s18 12 30 12zM42 596.667h940c12 0 22-4 30-12s12-18 12-30v-86c0-12-4-22-12-30s-18-12-30-12h-940c-12 0-22 4-30 12s-12 18-12 30v86c0 12 4 22 12 30s18 12 30 12zM42 340.667h940c12 0 22-4 30-12s12-18 12-30v-86c0-12-4-22-12-30s-18-12-30-12h-940c-12 0-22 4-30 12s-12 18-12 30v86c0 12 4 22 12 30s18 12 30 12zM42 84.667h940c12 0 22-4 30-12s12-18 12-30v-86c0-12-4-22-12-30s-18-12-30-12h-940c-12 0-22 4-30 12s-12 18-12 30v86c0 12 4 22 12 30s18 12 30 12z" />
<glyph unicode="&#xe641;" d="M42 852.667h86c12 0 22-4 30-12s12-18 12-30v-86c0-12-4-22-12-30s-18-12-30-12h-86c-12 0-22 4-30 12s-12 18-12 30v86c0 12 4 22 12 30s18 12 30 12zM298 852.667h684c12 0 22-4 30-12s12-18 12-30v-86c0-12-4-22-12-30s-18-12-30-12h-684c-12 0-22 4-30 12s-12 18-12 30v86c0 12 4 22 12 30s18 12 30 12zM42 596.667h86c12 0 22-4 30-12s12-18 12-30v-86c0-12-4-22-12-30s-18-12-30-12h-86c-12 0-22 4-30 12s-12 18-12 30v86c0 12 4 22 12 30s18 12 30 12zM298 596.667h684c12 0 22-4 30-12s12-18 12-30v-86c0-12-4-22-12-30s-18-12-30-12h-684c-12 0-22 4-30 12s-12 18-12 30v86c0 12 4 22 12 30s18 12 30 12zM42 340.667h86c12 0 22-4 30-12s12-18 12-30v-86c0-12-4-22-12-30s-18-12-30-12h-86c-12 0-22 4-30 12s-12 18-12 30v86c0 12 4 22 12 30s18 12 30 12zM298 340.667h684c12 0 22-4 30-12s12-18 12-30v-86c0-12-4-22-12-30s-18-12-30-12h-684c-12 0-22 4-30 12s-12 18-12 30v86c0 12 4 22 12 30s18 12 30 12zM42 84.667h86c12 0 22-4 30-12s12-18 12-30v-86c0-12-4-22-12-30s-18-12-30-12h-86c-12 0-22 4-30 12s-12 18-12 30v86c0 12 4 22 12 30s18 12 30 12zM298 84.667h684c12 0 22-4 30-12s12-18 12-30v-86c0-12-4-22-12-30s-18-12-30-12h-684c-12 0-22 4-30 12s-12 18-12 30v86c0 12 4 22 12 30s18 12 30 12z" />
<glyph unicode="&#xe642;" d="M342-85.333h-86v938h86zM470 852.667h84c12 0 22-4 30-12 10-8 14-18 14-30v-86c0-12-4-22-14-30-8-8-18-12-30-12h-84c-12 0-22 4-30 12-10 8-14 18-14 30v86c0 12 4 22 14 30 8 8 18 12 30 12zM470 596.667h426c12 0 22-4 30-12s12-18 12-30v-86c0-12-4-22-12-30s-18-12-30-12h-426c-12 0-22 4-30 12-10 8-14 18-14 30v86c0 12 4 22 14 30 8 8 18 12 30 12zM228 384.667l-142-108v64h-172v86h172v64zM470 340.667h256c12 0 22-4 30-12s12-18 12-30v-86c0-12-4-22-12-30s-18-12-30-12h-256c-12 0-22 4-30 12-10 8-14 18-14 30v86c0 12 4 22 14 30 8 8 18 12 30 12zM470 84.667h512c12 0 22-4 30-12s12-18 12-30v-86c0-12-4-22-12-30s-18-12-30-12h-512c-12 0-22 4-30 12-10 8-14 18-14 30v86c0 12 4 22 14 30 8 8 18 12 30 12z" />
<glyph unicode="&#xe643;" d="M42 852.667h86c12 0 22-4 30-12s12-18 12-30v-86c0-12-4-22-12-30s-18-12-30-12h-86c-12 0-22 4-30 12s-12 18-12 30v86c0 12 4 22 12 30s18 12 30 12zM768-85.333h-86v938h86zM42 596.667h428c12 0 22-4 30-12s12-18 12-30v-86c0-12-4-22-12-30s-18-12-30-12h-428c-12 0-22 4-30 12s-12 18-12 30v86c0 12 4 22 12 30s18 12 30 12zM938 426.667h172v-86h-172v-64l-142 108 142 106zM42 340.667h256c12 0 22-4 30-12 10-8 14-18 14-30v-86c0-12-4-22-14-30-8-8-18-12-30-12h-256c-12 0-22 4-30 12s-12 18-12 30v86c0 12 4 22 12 30s18 12 30 12zM42 84.667h512c12 0 22-4 30-12 10-8 14-18 14-30v-86c0-12-4-22-14-30-8-8-18-12-30-12h-512c-12 0-22 4-30 12s-12 18-12 30v86c0 12 4 22 12 30s18 12 30 12z" />
<glyph unicode="&#xe644;" d="M64 768.667h640c18 0 32-6 46-20 12-12 18-28 18-44v-556c0-16-6-32-18-44-14-14-28-20-46-20h-640c-18 0-32 6-46 20-12 12-18 28-18 44v556c0 16 6 32 18 44 14 14 28 20 46 20zM1024 170.667l-256 256 256 256z" />
<glyph unicode="&#xe645;" d="M38 852.667h948c10 0 20-4 26-10 8-8 12-16 12-26v-864c0-10-4-20-12-26-6-8-16-12-26-12h-948c-10 0-20 4-26 12-8 6-12 16-12 26v864c0 10 4 18 12 26 6 6 16 10 26 10zM86 768.667v-630l210 156 254-112-62 134 250 270 200-246v428zM292 668.667c32 0 58-10 80-32 24-24 34-50 34-82s-10-58-34-80c-22-24-48-34-80-34s-60 10-82 34c-22 22-32 48-32 80s10 58 32 82c22 22 50 32 82 32z" />
<glyph unicode="&#xe646;" d="M552 912.667c68 0 128-18 186-52 56-34 100-80 132-138 34-56 50-118 50-186 0-64-20-138-60-220-40-62-84-126-134-192-52-66-92-116-122-152l-46-54c-6 4-14 12-22 22-10 8-28 28-54 56-28 30-54 60-78 88-26 30-54 66-84 110-32 44-58 86-82 126-34 76-52 146-52 212 0 50 10 98 30 146 20 46 46 86 78 120s72 62 116 82c46 22 94 32 142 32zM556 746.667c-52 0-96-20-132-56-38-38-56-82-56-134s18-98 56-134c36-36 80-54 132-54s98 18 134 54c38 36 56 82 56 134s-18 96-56 134c-36 36-82 56-134 56z" />
<glyph unicode="&#xe647;" d="M512 918.667c66 0 130-12 192-38 60-26 112-62 156-106s80-96 106-156c26-62 38-126 38-192s-12-130-38-192c-26-60-62-112-106-156s-96-80-156-106c-62-26-126-38-192-38s-130 12-192 38c-60 26-112 62-156 106s-80 96-106 156c-26 62-38 126-38 192s12 130 38 192c26 60 62 112 106 156s96 80 156 106c62 26 126 38 192 38zM512 62.667v728c-66 0-128-16-184-48s-100-76-132-132c-32-56-48-118-48-184s16-128 48-184c32-56 76-100 132-132s118-48 184-48z" />
<glyph unicode="&#xe648;" d="M472 1020.667c12-42 30-82 50-124 20-40 42-78 64-110 24-34 46-68 72-102 24-32 48-66 70-98 22-34 42-66 60-100s32-68 42-108c10-38 16-76 16-116s-8-78-22-116c-14-36-34-68-58-94-26-26-54-50-86-70-30-20-64-36-100-46s-72-18-108-20c-48 4-92 14-138 30-44 16-82 38-118 66s-64 64-84 108c-22 42-32 88-32 140 0 38 4 78 16 116 10 38 24 74 42 108s38 66 58 100c22 32 46 66 70 100 26 34 48 68 72 102 22 32 44 70 64 112 22 40 38 80 50 122zM294 520.667c-14-18-26-38-38-60s-22-50-34-88c-12-36-16-72-14-104 0-22 4-42 12-60s16-34 26-44c8-12 20-22 34-32s26-16 34-20c8-4 16-10 28-14s20-4 26 0c6 2 10 10 12 18l4 30c2 4 2 12-2 18-2 6-6 12-10 16-4 2-8 6-12 10-6 6-14 16-26 36-12 18-20 38-28 62-14 50-12 128 6 232 0 6-2 8-6 8s-8-2-12-8z" />
<glyph unicode="&#xe649;" d="M854 778.667l92 98c0 2 2 2 4 2s6 2 10 2c6 0 12 0 18 0 6-2 14-4 22-8 8-6 16-12 24-20 12-12 20-24 24-36 2-12 2-22 0-28l-6-8-92-98zM298 852.667h342c28 0 58-4 90-10l-160-160h-314c-24 0-44-8-60-26-16-16-26-36-26-60v-426c0-24 10-44 26-60s36-26 60-26h426c24 0 44 10 60 26 18 16 26 36 26 60v156l170 170v-284c0-94-26-166-80-220-52-52-126-78-218-78h-342c-94 0-166 26-220 78-52 54-78 126-78 220v342c0 94 26 168 78 220 54 52 126 78 220 78zM862 600.667l-310-310-138-42 48 144 302 304z" />
<glyph unicode="&#xe64a;" d="M298 852.667h308c-92-82-154-140-184-170h-166c-24 0-44-8-60-26-16-16-26-36-26-60v-426c0-24 10-44 26-60s36-26 60-26h426c24 0 44 10 60 26 18 16 26 36 26 60l170 130v-88c0-94-26-166-78-220-52-52-126-78-220-78h-342c-94 0-166 26-220 78-52 54-78 126-78 220v342c0 94 26 168 78 220 54 52 126 78 220 78zM704 830.667l288-258c4-4 8-8 8-14s-4-12-8-16l-290-260c-4-4-8-4-10-4-4 2-6 4-6 10v172c-14 2-30 2-46 0-16 0-38-2-68-6-28-4-54-8-78-14s-48-16-74-30c-24-14-44-30-60-48 6 32 16 64 30 92 12 28 26 50 44 68 16 20 34 36 54 50 22 16 40 28 58 36 20 8 38 14 58 20s36 10 48 12c12 2 24 4 34 4v178c0 6 2 10 6 12 2 0 6 0 12-4z" />
<glyph unicode="&#xe64b;" d="M298 852.667h300c34 0 70-6 108-18l-152-152h-298c-24 0-44-8-60-26-16-16-26-36-26-60v-426c0-24 10-44 26-60s36-26 60-26h426c24 0 44 10 60 26 18 16 26 36 26 60v58l170 172v-188c0-94-26-166-78-220-52-52-126-78-220-78h-342c-94 0-166 26-220 78-52 54-78 126-78 220v342c0 94 26 168 78 220 54 52 126 78 220 78zM548 460.667l338 336c4 4 8 6 14 6s12-2 16-6l86-86c4-4 6-8 6-14s-2-12-6-16l-454-454c-4-4-8-6-14-6s-12 2-16 6l-210 212c-4 4-6 8-6 14s2 12 6 16l86 86c4 4 8 6 14 6s12-2 16-6l94-94c4-4 10-6 16-6s10 2 14 6z" />
<glyph unicode="&#xe64c;" d="M272 698.667l224 224c6 6 10 8 16 8s10-2 16-8l222-224c4-6 4-8 4-12-2-2-6-4-12-4h-144v-170h170v146c0 6 2 10 4 12 4 0 6-2 12-6l224-220c6-4 8-10 8-16s-2-10-8-14l-224-226c-6-4-8-6-12-6-2 2-4 6-4 12v146h-170v-170h144c6 0 10-2 12-4 0-4 0-6-4-12l-222-224c-6-6-10-8-16-8s-10 2-16 8l-224 224c-6 6-6 8-6 12 2 2 6 4 12 4h148v170h-170v-146c0-6-2-10-4-12-4 0-6 2-12 6l-224 226c-6 4-8 8-8 14s2 12 8 16l224 220c6 4 8 6 12 6 2-2 4-6 4-12v-146h170v170h-148c-6 0-10 2-12 4 0 4 0 6 6 12z" />
<glyph unicode="&#xe64d;" d="M214 852.667h84c12 0 22-4 30-12 10-8 14-18 14-30v-374l396 386c8 8 16 12 22 10s8-10 8-22v-854c0-12-2-18-8-20s-14 0-22 8l-396 386v-374c0-12-4-22-14-30-8-8-18-12-30-12h-84c-12 0-22 4-30 12-10 8-14 18-14 30v854c0 12 4 22 14 30 8 8 18 12 30 12z" />
<glyph unicode="&#xe64e;" d="M42 852.667h86c12 0 22-4 30-12s12-18 12-30v-374l396 386c10 8 16 12 22 10s10-10 10-22v-374l396 386c8 8 16 12 22 10s8-10 8-22v-854c0-12-2-18-8-20s-14 0-22 8l-396 386v-374c0-12-4-18-10-20s-12 0-22 8l-396 386v-374c0-12-4-22-12-30s-18-12-30-12h-86c-12 0-22 4-30 12s-12 18-12 30v854c0 12 4 22 12 30s18 12 30 12z" />
<glyph unicode="&#xe64f;" d="M1024 810.667v-854c0-12-2-18-8-20s-14 0-22 8l-396 386v-374c0-12-4-18-10-20s-12 0-22 8l-420 410c-8 8-12 18-12 30s4 22 12 30l420 408c10 8 16 12 22 10s10-10 10-22v-374l396 386c8 8 16 12 22 10s8-10 8-22z" />
<glyph unicode="&#xe650;" d="M208 830.667l694-424c10-6 16-14 16-22 0-10-6-16-16-22l-694-426c-10-6-20-8-26-4-8 4-12 12-12 24v854c0 12 4 20 12 24 6 4 16 2 26-4z" />
<glyph unicode="&#xe651;" d="M214 768.667h170c12 0 22-4 30-14 8-8 12-18 12-30v-682c0-12-4-22-12-30s-18-12-30-12h-170c-12 0-22 4-30 12-10 8-14 18-14 30v682c0 12 4 22 14 30 8 10 18 14 30 14zM554 768.667h172c12 0 22-4 30-14 8-8 12-18 12-30v-682c0-12-4-22-12-30s-18-12-30-12h-172c-12 0-22 4-30 12s-12 18-12 30v682c0 12 4 22 12 30 8 10 18 14 30 14z" />
<glyph unicode="&#xe652;" d="M938 724.667v-682c0-12-4-22-12-30s-18-12-30-12h-682c-12 0-22 4-30 12-10 8-14 18-14 30v682c0 12 4 22 14 30 8 10 18 14 30 14h682c12 0 22-4 30-14 8-8 12-18 12-30z" />
<glyph unicode="&#xe653;" d="M426 436.667v374c0 12 4 20 10 22s12-2 22-10l420-408c8-8 12-18 12-30s-4-22-12-30l-420-410c-10-8-16-10-22-8s-10 8-10 20v374l-396-386c-8-8-16-10-22-8s-8 8-8 20v854c0 12 2 20 8 22s14-2 22-10z" />
<glyph unicode="&#xe654;" d="M894 854.667l86 2c12 0 20-4 30-14 8-8 12-18 12-30l4-852c0-12-4-22-12-32-8-8-18-12-30-12h-86c-12 0-22 4-30 12s-12 18-12 30l-2 374-394-388c-8-8-16-12-22-10-6 4-8 10-8 22l-2 374-394-388c-10-8-16-12-22-8-6 2-10 8-10 20l-4 854c0 12 4 18 10 22 6 2 12-2 22-10l396-384-2 374c0 12 4 18 10 20 6 4 14 0 22-8l398-384-2 374c0 12 4 22 12 30s18 12 30 12z" />
<glyph unicode="&#xe655;" d="M726 852.667h84c12 0 22-4 30-12 10-8 14-18 14-30v-854c0-12-4-22-14-30-8-8-18-12-30-12h-84c-12 0-22 4-30 12-10 8-14 18-14 30v374l-396-386c-8-8-16-10-22-8s-8 8-8 20v854c0 12 2 20 8 22s14-2 22-10l396-386v374c0 12 4 22 14 30 8 8 18 12 30 12z" />
<glyph unicode="&#xe656;" d="M586 836.667l426-460c10-8 12-16 10-22s-10-10-22-10h-890c-12 0-20 4-22 10-4 6 0 14 8 22l428 460c8 8 18 14 30 14s22-6 32-14zM128 256.667h854c12 0 22-4 30-14 8-8 12-18 12-30v-84c0-12-4-22-12-30-8-10-18-14-30-14h-854c-12 0-22 4-30 14-8 8-12 18-12 30v84c0 12 4 22 12 30 8 10 18 14 30 14z" />
<glyph unicode="&#xe657;" d="M756 682.667l-302-302 302-300-168-170-472 472 472 468z" />
<glyph unicode="&#xe658;" d="M908 380.667l-470-470-170 170 302 300-302 302 170 168z" />
<glyph unicode="&#xe659;" d="M512 918.667c66 0 130-12 192-38 60-26 112-62 156-106s80-96 106-156c26-62 38-126 38-192s-12-130-38-192c-26-60-62-112-106-156s-96-80-156-106c-62-26-126-38-192-38s-130 12-192 38c-60 26-112 62-156 106s-80 96-106 156c-26 62-38 126-38 192s12 130 38 192c26 60 62 112 106 156s96 80 156 106c62 26 126 38 192 38zM554 682.667h-84c-12 0-22-4-30-12-10-8-14-18-14-30v-128h-128c-12 0-22-4-30-14-8-8-12-18-12-30v-84c0-12 4-22 12-30 8-10 18-14 30-14h128v-128c0-12 4-22 14-30 8-8 18-12 30-12h84c12 0 22 4 30 12 10 8 14 18 14 30v128h128c12 0 22 4 30 14 8 8 12 18 12 30v84c0 12-4 22-12 30-8 10-18 14-30 14h-128v128c0 12-4 22-14 30-8 8-18 12-30 12z" />
<glyph unicode="&#xe65a;" d="M512 918.667c66 0 130-12 192-38 60-26 112-62 156-106s80-96 106-156c26-62 38-126 38-192s-12-130-38-192c-26-60-62-112-106-156s-96-80-156-106c-62-26-126-38-192-38s-130 12-192 38c-60 26-112 62-156 106s-80 96-106 156c-26 62-38 126-38 192s12 130 38 192c26 60 62 112 106 156s96 80 156 106c62 26 126 38 192 38zM726 512.667h-428c-12 0-22-4-30-14-8-8-12-18-12-30v-84c0-12 4-22 12-30 8-10 18-14 30-14h428c12 0 22 4 30 14 8 8 12 18 12 30v84c0 12-4 22-12 30-8 10-18 14-30 14z" />
<glyph unicode="&#xe65b;" d="M512 918.667c66 0 130-12 192-38 60-26 112-62 156-106s80-96 106-156c26-62 38-126 38-192s-12-130-38-192c-26-60-62-112-106-156s-96-80-156-106c-62-26-126-38-192-38s-130 12-192 38c-60 26-112 62-156 106s-80 96-106 156c-26 62-38 126-38 192s12 130 38 192c26 60 62 112 106 156s96 80 156 106c62 26 126 38 192 38zM632 694.667c-6 0-12-4-18-8l-102-102-102 102c-6 4-12 8-18 8-8 0-14-4-20-8l-120-120c-4-6-8-12-8-20 0-6 4-12 8-18l102-102-102-102c-4-6-8-12-8-18 0-8 4-14 8-20l120-120c6-4 12-8 20-8 6 0 12 4 18 8l102 102 102-102c6-4 12-8 18-8 8 0 14 4 20 8l120 120c4 6 8 12 8 20 0 6-4 12-8 18l-102 102 102 102c4 6 8 12 8 18 0 8-4 14-8 20l-120 120c-6 4-12 8-20 8z" />
<glyph unicode="&#xe65c;" d="M512 918.667c66 0 130-12 192-38 60-26 112-62 156-106s80-96 106-156c26-62 38-126 38-192s-12-130-38-192c-26-60-62-112-106-156s-96-80-156-106c-62-26-126-38-192-38s-130 12-192 38c-60 26-112 62-156 106s-80 96-106 156c-26 62-38 126-38 192s12 130 38 192c26 60 62 112 106 156s96 80 156 106c62 26 126 38 192 38zM466 446.667l-72 72c-4 4-8 6-14 6s-12-2-16-6l-120-118c-4-6-6-10-6-16s2-10 6-16l208-204c4-6 8-8 14-8s12 2 16 8l320 320c4 4 6 8 6 14s-2 12-6 16l-120 118c-4 4-8 6-14 6s-12-2-16-6z" />
<glyph unicode="&#xe65d;" d="M512 918.667c66 0 130-12 192-38 60-26 112-62 156-106s80-96 106-156c26-62 38-126 38-192s-12-130-38-192c-26-60-62-112-106-156s-96-80-156-106c-62-26-126-38-192-38s-130 12-192 38c-60 26-112 62-156 106s-80 96-106 156c-26 62-38 126-38 192s12 130 38 192c26 60 62 112 106 156s96 80 156 106c62 26 126 38 192 38zM502 716.667c-16 0-34 0-50-4-18-2-36-8-54-18-20-8-36-18-50-32s-26-32-36-54c-8-22-14-48-14-76 0-14 6-22 18-22h112c16-2 26 0 30 10 2 12 8 20 16 24 10 4 22 6 40 6 12 0 20-2 26-8 8-6 10-14 10-24 0-14-2-24-6-30s-10-12-22-16c0 0-4 0-12-2-6-2-12-4-16-6s-10-6-16-10c-8-4-14-8-20-14-4-6-10-12-16-20-4-8-10-18-12-30-4-12-6-26-8-40 0-4 2-10 6-14 2-4 8-8 16-8h148c4 0 10 2 18 8 10 4 20 12 30 24 12 10 22 24 32 40s20 38 26 64c6 26 10 54 10 84 0 28-4 52-14 72s-22 36-36 48c-16 12-32 22-52 30-18 8-36 12-54 16-16 2-34 2-50 2zM576 256.667h-128c-6 0-10-2-14-8-6-4-8-8-8-14v-128c0-6 2-10 8-14 4-6 8-8 14-8h128c6 0 10 2 14 8 6 4 8 8 8 14v128c0 6-2 10-8 14-4 6-8 8-14 8z" />
<glyph unicode="&#xe65e;" d="M512 918.667c66 0 130-12 192-38 60-26 112-62 156-106s80-96 106-156c26-62 38-126 38-192s-12-130-38-192c-26-60-62-112-106-156s-96-80-156-106c-62-26-126-38-192-38s-130 12-192 38c-60 26-112 62-156 106s-80 96-106 156c-26 62-38 126-38 192s12 130 38 192c26 60 62 112 106 156s96 80 156 106c62 26 126 38 192 38zM576 768.667h-128c-6 0-10-2-14-8-6-4-8-8-8-14v-128c0-6 2-10 8-14 4-6 8-8 14-8h128c6 0 10 2 14 8 6 4 8 8 8 14v128c0 6-2 10-8 14-4 6-8 8-14 8zM576 512.667h-214c-6 0-10-2-14-8-4-4-6-8-6-14v-42c0-6 2-12 6-16s8-6 14-6h64v-170h-64c-6 0-10-2-14-8-4-4-6-8-6-14v-42c0-6 2-12 6-16s8-6 14-6h300c6 0 10 2 14 6s6 10 6 16v42c0 6-2 10-6 14-4 6-8 8-14 8h-64v234c0 6-2 10-8 14-4 6-8 8-14 8z" />
<glyph unicode="&#xe65f;" d="M448 938.667h128c6 0 10-2 14-6 6-4 8-10 8-16v-164c58-16 108-46 152-88 42-44 72-94 88-152h164c6 0 12-2 16-8 4-4 6-8 6-14v-128c0-6-2-10-6-14-4-6-10-8-16-8h-164c-16-58-46-108-88-152-44-42-94-72-152-88v-164c0-6-2-12-8-16-4-4-8-6-14-6h-128c-6 0-10 2-14 6-6 4-8 10-8 16v164c-58 16-108 46-152 88-42 44-72 94-88 152h-164c-6 0-12 2-16 8-4 4-6 8-6 14v128c0 6 2 10 6 14 4 6 10 8 16 8h164c16 58 46 108 88 152 44 42 94 72 152 88v164c0 6 2 12 8 16 4 4 8 6 14 6zM598 676.667v-144c0-6-2-10-8-14-4-4-8-6-14-6h-128c-6 0-10 2-14 6-6 4-8 8-8 14v144c-38-14-72-34-100-64-30-28-50-62-64-100h144c6 0 10-2 14-8 4-4 6-8 6-14v-128c0-6-2-10-6-14-4-6-8-8-14-8h-144c14-38 34-72 64-100 28-30 62-50 100-64v144c0 6 2 10 8 14 4 4 8 6 14 6h128c6 0 10-2 14-6 6-4 8-8 8-14v-144c38 14 72 34 100 64 30 28 50 62 64 100h-144c-6 0-10 2-14 8-4 4-6 8-6 14v128c0 6 2 10 6 14 4 6 8 8 14 8h144c-14 38-34 72-64 100-28 30-62 50-100 64z" />
<glyph unicode="&#xe660;" d="M512 918.667c66 0 130-12 192-38 60-26 112-62 156-106s80-96 106-156c26-62 38-126 38-192s-12-130-38-192c-26-60-62-112-106-156s-96-80-156-106c-62-26-126-38-192-38s-130 12-192 38c-60 26-112 62-156 106s-80 96-106 156c-26 62-38 126-38 192s12 130 38 192c26 60 62 112 106 156s96 80 156 106c62 26 126 38 192 38zM512 790.667c-66 0-128-16-184-48s-100-76-132-132c-32-56-48-118-48-184s16-128 48-184c32-56 76-100 132-132s118-48 184-48c66 0 128 16 184 48s100 76 132 132c32 56 48 118 48 184s-16 128-48 184c-32 56-76 100-132 132s-118 48-184 48zM648 616.667l54-54c4-4 6-10 6-16s-2-10-6-14l-106-106 106-106c4-4 6-8 6-14s-2-12-6-16l-54-54c-4-4-10-6-16-6s-10 2-14 6l-106 106-106-106c-4-4-8-6-14-6s-12 2-16 6l-54 54c-4 4-6 10-6 16s2 10 6 14l106 106-106 106c-4 4-6 8-6 14s2 12 6 16l54 54c4 4 10 6 16 6s10-2 14-6l106-106 106 106c4 4 8 6 14 6s12-2 16-6z" />
<glyph unicode="&#xe661;" d="M512 918.667c66 0 130-12 192-38 60-26 112-62 156-106s80-96 106-156c26-62 38-126 38-192s-12-130-38-192c-26-60-62-112-106-156s-96-80-156-106c-62-26-126-38-192-38s-130 12-192 38c-60 26-112 62-156 106s-80 96-106 156c-26 62-38 126-38 192s12 130 38 192c26 60 62 112 106 156s96 80 156 106c62 26 126 38 192 38zM512 790.667c-66 0-128-16-184-48s-100-76-132-132c-32-56-48-118-48-184s16-128 48-184c32-56 76-100 132-132s118-48 184-48c66 0 128 16 184 48s100 76 132 132c32 56 48 118 48 184s-16 128-48 184c-32 56-76 100-132 132s-118 48-184 48zM668 586.667l90-90c4-4 6-8 6-14s-2-12-6-16l-274-274c-4-4-8-6-14-6s-12 2-16 6l-172 174c-4 4-8 8-8 14s4 12 8 16l90 90c4 4 10 6 14 6 6 0 12-2 16-6l68-68 168 168c4 4 8 6 14 6s12-2 16-6z" />
<glyph unicode="&#xe662;" d="M512 918.667c66 0 130-12 192-38 60-26 112-62 156-106s80-96 106-156c26-62 38-126 38-192s-12-130-38-192c-26-60-62-112-106-156s-96-80-156-106c-62-26-126-38-192-38s-130 12-192 38c-60 26-112 62-156 106s-80 96-106 156c-26 62-38 126-38 192s12 130 38 192c26 60 62 112 106 156s96 80 156 106c62 26 126 38 192 38zM512 790.667c-66 0-128-16-184-48s-100-76-132-132c-32-56-48-118-48-184 0-68 18-132 56-192l500 500c-60 38-124 56-192 56zM824 612.667l-498-498c58-34 120-52 186-52s128 16 184 48c56 32 100 76 132 132s48 118 48 184c0 66-18 128-52 186z" />
<glyph unicode="&#xe663;" d="M34 410.667l444 366c10 6 18 8 24 6 6-4 10-10 10-22v-248h470c12 0 22-4 30-14 8-8 12-18 12-30v-170c0-12-4-22-12-30s-18-12-30-12h-470v-248c0-12-4-20-10-24-6-2-14 0-24 8l-444 364c-10 8-14 16-14 28 0 10 4 20 14 26z" />
<glyph unicode="&#xe664;" d="M546 776.667l444-366c10-6 14-16 14-26 0-12-4-20-14-28l-444-364c-10-8-18-10-24-8-6 4-10 12-10 24v248h-470c-12 0-22 4-30 12s-12 18-12 30v170c0 12 4 22 12 30 8 10 18 14 30 14h470v248c0 12 4 18 10 22 6 2 14 0 24-6z" />
<glyph unicode="&#xe665;" d="M582 904.667l364-444c8-10 10-18 8-24-4-6-12-10-24-10h-248v-470c0-12-4-22-12-30s-18-12-30-12h-170c-12 0-22 4-30 12-10 8-14 18-14 30v470h-248c-12 0-18 4-22 10-2 6 0 14 6 24l366 444c6 10 16 14 26 14 12 0 20-4 28-14z" />
<glyph unicode="&#xe666;" d="M470 938.667h170c12 0 22-4 30-12s12-18 12-30v-470h248c12 0 20-4 24-10 2-6 0-14-8-24l-364-444c-8-10-16-14-28-14-10 0-20 4-26 14l-366 444c-6 10-8 18-6 24 4 6 10 10 22 10h248v470c0 12 4 22 14 30 8 8 18 12 30 12z" />
<glyph unicode="&#xe667;" d="M546 860.667l444-364c10-8 14-16 14-28 0-10-4-20-14-26l-444-366c-10-6-18-8-24-6-6 4-10 10-10 22v248c-54 0-106-6-156-16s-98-26-144-44c-48-20-90-46-126-80-36-32-66-72-86-116 2 60 10 116 24 166 12 50 30 98 56 142s58 84 98 116c38 32 84 58 142 78 56 20 120 32 192 36v222c0 12 4 20 10 24 6 2 14 0 24-8z" />
<glyph unicode="&#xe668;" d="M726 938.667h256c12 0 22-4 30-12s12-18 12-30v-256c0-12-2-20-8-22s-14 0-22 8l-80 80-212-212c-6-4-10-6-16-6s-10 2-16 6l-90 90c-4 6-6 10-6 16s2 10 6 16l212 212-80 80c-8 8-10 16-8 22s10 8 22 8zM298-85.333h-256c-12 0-22 4-30 12s-12 18-12 30v256c0 12 2 20 8 22s14 0 22-8l80-80 212 212c6 4 10 6 16 6s10-2 16-6l90-90c4-6 6-10 6-16s-2-10-6-16l-212-212 80-80c8-8 10-16 8-22s-10-8-22-8z" />
<glyph unicode="&#xe669;" d="M866 870.667l90-90c4-6 6-10 6-16s-2-10-6-16l-212-212 80-80c8-8 10-16 8-22s-10-8-22-8h-256c-12 0-22 4-30 12s-12 18-12 30v256c0 12 2 20 8 22s14 0 22-8l80-80 212 212c6 4 10 6 16 6s10-2 16-6zM214 426.667h256c12 0 22-4 30-12s12-18 12-30v-256c0-12-2-20-8-22s-14 0-22 8l-80 80-212-212c-6-4-10-6-16-6s-10 2-16 6l-90 90c-4 6-6 10-6 16s2 10 6 16l212 212-80 80c-8 8-10 16-8 22s10 8 22 8z" />
<glyph unicode="&#xe66a;" d="M512 918.667c66 0 130-12 192-38 60-26 112-62 156-106s80-96 106-156c26-62 38-126 38-192s-12-130-38-192c-26-60-62-112-106-156s-96-80-156-106c-62-26-126-38-192-38s-130 12-192 38c-60 26-112 62-156 106s-80 96-106 156c-26 62-38 126-38 192s12 130 38 192c26 60 62 112 106 156s96 80 156 106c62 26 126 38 192 38zM600 682.667h-176c-12 0-22-4-28-12s-10-18-6-30l48-258c2-10 10-20 18-28 10-10 22-14 32-14h48c10 0 22 4 32 14 8 8 16 18 18 28l48 258c4 12 0 22-6 30s-16 12-28 12zM576 256.667h-128c-6 0-10-2-14-8-6-4-8-8-8-14v-128c0-6 2-10 8-14 4-6 8-8 14-8h128c6 0 10 2 14 8 6 4 8 8 8 14v128c0 6-2 10-8 14-4 6-8 8-14 8z" />
<glyph unicode="&#xe66b;" d="M222 938.667c4 0 10 0 16-2 6 0 10-2 12-4h6c12-6 24-14 36-20l168-102c12-6 22-14 30-20 18-12 28-14 32-10 6 8 20 18 42 30l168 100c12 8 24 14 38 20 10 4 20 6 32 6 14 0 26-4 40-14s24-18 32-28l10-14c8-12 14-24 16-38l22-106 6-36c0-6 4-10 8-14 4-2 8-4 14-4h52c6 0 12-2 16-6s6-10 6-16v-42c0-6-2-10-6-14-4-6-10-8-16-8h-42c-6 0-10-2-14-6-6-4-8-8-8-14v-150h-340v256h-172v-256h-340v150c0 6-2 10-8 14-4 4-8 6-14 6h-42c-6 0-12 2-16 8-4 4-6 8-6 14v42c0 6 2 12 6 16s10 6 16 6h52c6 0 10 0 14 2s6 4 6 8c0 2 4 16 8 44l22 108c2 16 8 28 16 40 2 2 2 4 4 6s6 6 12 12c6 6 12 12 18 16 6 6 14 10 22 14 10 4 18 6 26 6zM780 834.667l-140-138c-4-4-6-6-6-10 2-2 6-4 12-4h186c6 0 10 2 12 6 4 4 4 8 2 14l-44 128c0 6-4 8-8 10s-10 0-14-6zM396 696.667l-152 134c-4 4-10 6-14 4-4 0-8-4-8-10l-44-122c-2-6-2-10 2-14 2-4 6-6 12-6h198c6 0 8 2 10 4 0 4 0 6-4 10zM426-85.333h-320c-6 0-10 2-14 6s-6 10-6 16v320h340zM938 256.667v-320c0-6-2-12-6-16s-8-6-14-6h-320v342z" />
<glyph unicode="&#xe66c;" d="M994 930.667c4 2 10 0 18-6s12-10 12-16c-2-100-8-192-22-276-12-82-28-152-48-208-18-58-42-108-74-150-30-42-60-76-86-100-28-26-62-46-102-60-40-12-72-22-100-28-28-4-62-6-104-4-40 4-70 6-88 10-20 2-46 6-78 14-34 6-56 10-66 8-2 2-6 2-10 0-6 0-16-4-30-12s-30-20-44-34l-132-130c-14-14-24-18-30-14-6 6-10 18-10 38 0 36 12 66 36 86 4 6 18 18 42 40 26 20 44 36 58 48 10 10 20 24 30 40 8 18 12 36 10 52-4 32-8 62-8 88 0 28 2 58 6 96 4 36 16 72 32 110s38 74 66 110c22 30 46 54 68 76 24 20 50 38 76 54 28 14 56 28 82 38s58 20 96 30c38 10 76 20 110 28 36 8 80 18 134 30 56 14 108 28 156 42zM952 850.667c-4 6-10 6-18-2-10-6-22-20-40-42-22-28-56-56-102-88s-86-58-120-76l-54-30c-32-16-60-32-86-48s-56-34-90-58c-32-24-62-46-86-68-26-22-50-48-74-78-22-30-42-60-54-90-14-32-22-56-26-72-4-18-4-26 2-28 4-2 14 4 26 14 12 12 28 28 48 52 14 16 40 38 80 64 38 26 74 48 106 66s74 42 126 70c40 20 74 40 102 58s56 42 86 68c32 28 60 58 86 94s50 80 72 128c14 28 20 46 22 50 0 6-2 12-6 16z" />
<glyph unicode="&#xe66d;" d="M558 964.667c-22-38-38-74-48-112-8-36-12-68-8-98 2-28 10-56 20-82 12-26 26-48 42-68 16-18 34-36 54-52 20-18 40-30 58-40s38-20 56-26c-2 4-8 14-16 30s-12 26-16 34c-2 6-8 18-14 34-6 14-12 28-14 36-4 8-6 20-12 36-4 14-6 28-8 38 0 10-2 22-2 36s2 26 4 36c2 10 6 22 12 34 4 10 12 22 20 32 54-24 100-54 140-92 40-36 70-76 90-118 20-40 34-84 44-132s12-94 12-136c-2-44-8-86-18-128-6-30-20-62-36-90-18-30-38-54-58-74-22-20-44-40-68-56s-44-30-62-38c-18-10-32-16-44-20-42-12-78-14-110-8-16 4-20 8-10 16 4 2 8 4 14 6 8 2 16 8 28 18 12 8 22 22 34 38 14 16 24 34 34 54s16 42 18 68c2 28 0 54-6 82s-20 58-42 90c-22 34-52 68-88 100 4-60 4-114-2-162s-16-88-30-120c-16-32-34-58-56-80-22-20-46-36-72-44s-52-10-80-8c-28 2-54 8-80 20-46 20-84 54-112 98-30 44-46 92-46 146-2 12-2 26 0 42 0 14 2 30 4 44 0 16 4 32 10 48 6 18 14 34 24 52 10 16 22 34 40 54 16 20 36 40 58 58-4-30-6-58-4-86s8-54 16-78c8-22 18-42 28-58 12-16 24-26 38-34 14-6 28-6 42 0 18 6 28 16 34 30 4 12 2 28-4 46-8 18-16 38-26 56s-20 40-30 64c-12 24-18 46-22 64-8 48-8 94 2 138 8 44 24 80 44 110 22 30 46 56 74 78 28 24 54 42 80 52 24 12 48 20 70 22z" />
<glyph unicode="&#xe66e;" d="M512 848.667c46 0 92-6 136-20 46-12 86-30 120-50 36-20 68-44 100-70s58-54 80-82c22-28 42-54 58-80s28-50 36-70c8-22 12-38 12-50s-4-28-12-50c-8-20-20-44-36-70s-36-52-58-80c-22-28-50-56-82-82-30-26-64-50-98-70-36-20-76-38-120-50-44-14-90-20-136-20s-92 6-136 20c-44 12-84 30-120 50-34 20-68 44-98 70-32 26-60 54-82 82s-42 54-58 80c-16 26-28 50-36 70-8 22-12 38-12 50s4 28 12 50c8 20 20 44 36 70s36 52 58 80c22 28 48 56 80 82s64 50 100 70c34 20 74 38 120 50 44 14 90 20 136 20zM758 622.667c-8 8-14 12-16 10s0-8 4-20c14-32 22-66 22-100 0-72-26-132-76-182s-110-74-180-74c-70 0-130 24-180 74s-76 110-76 182c0 32 6 66 20 96 4 12 6 18 4 20s-8-2-16-10c-40-40-84-92-136-158-8-8-12-20-12-34-2-14 0-26 6-36 14-22 26-42 40-62 16-20 36-42 60-70 26-26 52-50 80-68 26-20 58-36 96-50s76-22 114-22c38 0 76 8 114 22 38 12 70 30 96 50 28 18 54 42 80 68 24 28 44 50 60 70 14 20 26 40 40 60 6 10 8 22 6 36 0 14-4 26-12 36-50 66-96 120-138 162zM382 534.667l-30-30c-8-8-14-20-16-34-2-12-2-24 4-34 20-40 48-72 78-100 10-6 22-10 34-8 12 0 24 4 30 14l30 28c8 10 12 18 12 30-2 10-6 20-14 28-26 24-50 58-76 100-6 10-14 16-24 16-10 2-20-2-28-10z" />
<glyph unicode="&#xe66f;" d="M506-85.333h-128l28 102c-52 12-102 32-150 58-48 28-90 58-122 92-34 32-64 66-90 102-24 34-44 66-56 94s-18 48-18 64c0 12 4 28 12 50 8 20 20 44 36 70s36 52 58 80c22 28 48 56 80 82s64 50 100 70c34 20 74 38 120 50 44 14 90 20 136 20 34 0 70-4 108-14l26 104h128zM806 572.667l40 154c62-48 112-104 150-164 40-62 58-106 58-136 0-14-4-34-16-60s-28-56-50-88c-24-32-50-64-80-96-30-30-66-60-110-88s-88-50-134-64l38 146c44 28 82 62 116 100 34 40 62 76 84 112 6 10 8 22 6 36 0 14-4 26-12 36-30 40-60 76-90 112zM264 618.667c-40-40-84-92-136-158-8-8-12-20-12-34-2-14 0-26 6-36 12-18 22-34 34-52 12-16 28-38 48-60 22-24 42-44 64-62s48-36 76-52c30-16 60-28 90-36l36 132c-62 10-112 38-152 86-42 48-62 102-62 166 0 32 6 66 20 96 4 12 6 18 4 20s-8-2-16-10zM382 534.667l-30-30c-8-8-14-20-16-34-2-12-2-24 4-34 20-40 48-72 78-100 10-6 22-10 34-8 12 0 24 4 30 14l12 8 18 74-2 4c-26 24-50 58-76 100-6 10-14 16-24 16-10 2-20-2-28-10z" />
<glyph unicode="&#xe670;" d="M-76 0.667l548 908c10 18 24 26 40 26 16-2 30-12 40-30l548-902c12-18 14-38 8-58-8-20-22-30-44-30h-1104c-22 0-36 10-44 30-6 18-4 38 8 56zM132 84.667h294v64c0 6 2 12 8 16 4 4 8 6 14 6h128c6 0 10-2 14-6 6-4 8-10 8-16v-64h294l-380 618zM424 512.667h176c12 0 22-4 28-14 6-8 10-18 6-28l-48-216c-2-10-10-20-18-28-10-10-22-14-32-14h-48c-10 0-22 4-32 14-8 8-16 18-18 28l-48 216c-4 10 0 20 6 28 6 10 16 14 28 14z" />
<glyph unicode="&#xe671;" d="M554 938.667c36 0 66-12 92-38 24-24 36-54 36-90v-290l310-276c8-8 16-20 22-34s10-26 10-38v-34c0-12-4-20-10-24-8-2-16-2-24 6l-308 212v-224c58-54 86-86 86-96v-56c0-12-4-20-12-24-6-4-16-4-26 0l-176 110-174-110c-12-4-20-4-28 0-6 4-10 12-10 24v56c0 10 28 42 84 96v224l-306-212c-10-8-18-8-24-6-8 4-10 12-10 24v34c0 12 2 24 8 38s14 26 22 34l310 276v290c0 36 14 66 38 90 26 26 56 38 90 38z" />
<glyph unicode="&#xe672;" d="M726 938.667h84c12 0 22-4 30-12 10-8 14-18 14-30v-44h42c12 0 22-4 30-12s12-18 12-30v-128h-938v128c0 12 4 22 12 30s18 12 30 12h44v44c0 12 4 22 12 30s18 12 30 12h86c12 0 22-4 30-12s12-18 12-30v-44h426v44c0 12 4 22 14 30 8 8 18 12 30 12zM938 596.667v-640c0-12-4-22-12-30s-18-12-30-12h-854c-12 0-22 4-30 12s-12 18-12 30v640zM86 426.667v-86h84v86zM256 426.667v-86h86v86zM426 426.667v-86h86v86zM598 426.667v-86h84v86zM768 426.667v-86h86v86zM86 256.667v-86h84v86zM256 256.667v-86h86v86zM426 256.667v-86h86v86zM598 256.667v-86h84v86zM768 256.667v-86h86v86zM86 84.667v-84h84v84zM256 84.667v-84h86v84zM426 84.667v-84h86v84zM598 84.667v-84h84v84zM768 84.667v-84h86v84z" />
<glyph unicode="&#xe673;" d="M968 908.667l214-196c8-8 12-18 12-30s-4-22-12-30l-214-196c-8-8-14-10-20-8s-10 8-10 20v128h-136l-512-512h-248c-12 0-22 4-30 14-8 8-12 18-12 30v84c0 12 4 22 12 30 8 10 18 14 30 14h180l512 512h204v128c0 12 4 18 10 20s12 0 20-8zM446 612.667l-120-120-104 104h-180c-12 0-22 4-30 14-8 8-12 18-12 30v84c0 12 4 22 12 30 8 10 18 14 30 14h248zM968 396.667l214-196c8-8 12-18 12-30s-4-22-12-30l-214-196c-8-8-14-10-20-8s-10 8-10 20v128h-204l-156 156 120 120 104-104h136v128c0 12 4 18 10 20s12 0 20-8z" />
<glyph unicode="&#xe674;" d="M86 852.667h852c24 0 44-8 60-24 18-18 26-38 26-60v-512c0-24-8-44-26-60-16-18-36-26-60-26h-508l-260-256v256h-84c-24 0-44 8-60 26-18 16-26 36-26 60v512c0 22 8 42 26 60 16 16 36 24 60 24z" />
<glyph unicode="&#xe675;" d="M128 938.667h170c12 0 22-4 30-12 10-8 14-18 14-30v-214h-256v214c0 12 4 22 12 30s18 12 30 12zM726 938.667h170c12 0 22-4 30-12s12-18 12-30v-214h-256v214c0 12 4 22 14 30 8 8 18 12 30 12zM938 596.667v-256c0-22 0-44-2-66-2-20-6-46-12-76-8-30-16-58-28-82s-28-50-50-76c-22-26-46-48-76-66-28-18-66-32-110-42-44-12-94-18-148-18s-104 6-148 18c-44 10-82 24-110 42-30 18-54 40-76 66s-38 52-50 76c-12 24-20 52-28 82-6 30-10 56-12 76-2 22-2 44-2 66v256h256v-272c0 0 0-12 0-34 2-24 2-36 4-34s6-8 10-30c4-20 8-30 14-24 6 4 12-4 22-22 8-18 18-24 30-16 10 8 24 4 38-10 16-14 34-16 52-4s36 14 52 4c14-10 28-6 38 10 12 18 22 24 30 18 10-6 16 2 22 22s10 28 14 26c4-4 8 6 10 30 0 22 2 32 4 32 0-2 2 10 2 34-2 24-2 36-2 36v234z" />
<glyph unicode="&#xe676;" d="M938 264.667l-168-170-302 302-300-302-168 170 470 470z" />
<glyph unicode="&#xe677;" d="M940 588.667l-470-470-470 470 168 170 302-302 302 302z" />
<glyph unicode="&#xe678;" d="M344 768.667h638c12 0 22-4 30-14 8-8 12-18 12-30v-470h128c12 0 20-2 22-8s-2-14-10-22l-196-212c-8-8-18-12-30-12s-22 4-30 12l-196 212c-8 8-10 16-8 22s10 8 22 8h128v342h-326zM116 754.667l196-212c8-8 10-16 8-22s-10-8-22-8h-128v-342h330l182-170h-640c-12 0-22 4-30 12s-12 18-12 30v470h-128c-12 0-20 2-22 8s2 14 10 22l196 212c8 8 18 12 30 12s22-4 30-12z" />
<glyph unicode="&#xe679;" d="M48 938.667h80c10 0 18-4 26-10s14-14 16-22l32-138h764c14 0 26-6 34-16s12-24 8-36l-84-406c-4-12-12-24-24-36s-28-18-46-18h-540l40-172h456c12 0 22-4 30-12 10-8 14-18 14-30s-4-22-14-30c-8-8-18-12-30-12h-42v-44c0-12-4-22-12-30s-18-12-30-12c-12 0-22 4-30 12-10 8-14 18-14 30v44h-256v-44c0-12-4-22-12-30s-18-12-30-12c-12 0-22 4-30 12s-12 18-12 30v44h-28c-10 0-18 2-26 8-10 6-14 10-18 16l-4 8-172 820h-46c-12 0-22 4-30 14-8 8-12 18-12 30s4 22 12 30c8 8 18 12 30 12z" />
<glyph unicode="&#xe67a;" d="M1024 768.667v-86h-1024v86h170c0 22 10 42 26 60 16 16 36 24 60 24h256c24 0 44-8 60-24 16-18 26-38 26-60zM0 596.667h1024v-682h-1024z" />
<glyph unicode="&#xe67b;" d="M170 596.667l-170-340v512h170c0 22 10 42 26 60 16 16 36 24 60 24h256c24 0 44-8 60-24 18-18 26-38 26-60h426v-172zM1280 512.667l-256-598h-1024l256 598z" />
<glyph unicode="&#xe67c;" d="M542 924.667l196-212c8-8 10-16 8-22s-8-8-20-8h-128v-512h128c12 0 18-4 20-10s0-12-8-20l-196-214c-8-8-18-12-30-12s-22 4-30 12l-196 214c-8 8-10 14-8 20s8 10 20 10h128v512h-128c-12 0-18 2-20 8s0 14 8 22l196 212c8 8 18 14 30 14s22-6 30-14z" />
<glyph unicode="&#xe67d;" d="M798 652.667l214-196c8-8 12-18 12-30s-4-22-12-30l-214-196c-8-8-16-12-22-10-6 4-8 10-8 22v128h-512v-128c0-12-2-18-8-22-6-2-14 2-22 10l-214 196c-8 8-12 18-12 30s4 22 12 30l214 196c8 8 16 10 22 8s8-10 8-22v-126h512v126c0 12 2 20 8 22s14 0 22-8z" />
<glyph unicode="&#xe67e;" d="M998 256.667l-148 624c-2 14-8 26-18 38-12 14-22 20-34 20h-572c-12 0-22-6-34-18-10-10-16-22-18-34l-148-630zM938 170.667h-852c-24 0-44-8-60-26-18-16-26-36-26-60v-84c0-24 8-44 26-60 16-18 36-26 60-26h852c24 0 44 8 60 26 18 16 26 36 26 60v84c0 24-8 44-26 60-16 18-36 26-60 26zM682 0.667v84h86v-84zM854 0.667v84h84v-84z" />
<glyph unicode="&#xe67f;" d="M982 852.667c12 0 22-4 30-12s12-18 12-30v-726c0-12-4-22-12-30s-18-12-30-12c-12 0-22 4-30 12-10 8-14 18-14 30v726c0 12 4 22 14 30 8 8 18 12 30 12zM854 84.667l-576 172h-34l42-236c0-10 0-14-6-18-4-2-12-2-24-2h-78c-12 0-22 4-30 12s-14 18-16 30c-32 190-46 290-46 298v220c0 8 0 14 0 20 0 4 2 8 6 12 2 2 8 4 14 4h172l576 214zM0 554.667v-214c-2 0-6 0-10 2-4 0-10 2-20 4-10 4-18 8-26 14-6 4-14 12-20 24s-10 26-10 42v42c0 16 4 28 10 40s12 20 20 26c10 6 18 10 26 14 8 2 16 4 22 6z" />
<glyph unicode="&#xe680;" d="M472 938.667h80c12 0 20-2 24-8 6-6 6-16 4-26l-16-32c48-10 88-34 122-70 36-36 58-76 66-120l54-280 100-146h14c12 0 20-4 28-14 8-8 12-18 12-28 0-12-2-24-10-36-8-10-16-18-26-22-6-2-12-6-20-8-8-4-28-10-56-18s-58-14-88-20c-30-6-68-12-112-18-46-4-92-8-136-8-32 0-66 2-98 4-34 4-62 8-88 12-28 4-52 8-76 12-24 6-46 10-64 16-16 4-32 10-46 12-12 4-24 8-30 12l-10 2c-10 6-18 14-26 24-8 12-10 24-10 36 0 10 4 20 12 28 8 10 16 14 28 14h14l100 146 54 280c8 44 30 84 66 120 34 36 74 58 122 70l-16 28c-2 10-2 20 4 26 4 8 14 12 24 12zM424 8.667c30-4 58-6 88-6s60 2 88 6c-8-28-20-50-34-68-16-18-34-26-54-26s-38 8-54 26c-16 18-26 40-34 68z" />
<glyph unicode="&#xe681;" d="M682 722.667l192 66-66-192 198-38-152-132 152-132-198-38 66-192-192 66-38-198-132 152-132-152-38 198-192-66 66 192-198 38 152 132-152 132 198 38-66 192 192-66 38 198 132-152 132 152z" />
<glyph unicode="&#xe682;" d="M384 852.667h170c12 0 22-4 30-12 10-8 14-18 14-30v-298h298c12 0 22-4 30-14 8-8 12-18 12-30v-170c0-12-4-22-12-30s-18-12-30-12h-298v-300c0-12-4-22-14-30-8-8-18-12-30-12h-170c-12 0-22 4-30 12s-12 18-12 30v300h-300c-12 0-22 4-30 12s-12 18-12 30v170c0 12 4 22 12 30 8 10 18 14 30 14h300v298c0 12 4 22 12 30s18 12 30 12z" />
<glyph unicode="&#xe683;" d="M512 852.667h214c12 0 26-4 38-14 12-8 24-20 32-34l204-294c16-16 24-38 24-62v-86c0-26-8-50-26-72-16-24-36-34-60-34h-280c16-68 24-104 24-108v-128c0-24-8-48-24-72-18-22-38-34-60-34h-44c-14 0-30 6-44 18-14 10-24 24-32 40l-82 168-122 168c-12 16-18 34-18 54v342c0 22 8 38 24 48s36 16 62 16h52c70 56 110 84 118 84zM42 768.667h86c12 0 22-4 30-14 8-8 12-18 12-30v-426c0-12-4-22-12-30s-18-12-30-12h-86c-12 0-22 4-30 12s-12 18-12 30v426c0 12 4 22 12 30 8 10 18 14 30 14zM542 768.667l-116-86h-84v-320l128-182 84-180h44v148l-44 192h384v108l-212 320z" />
<glyph unicode="&#xe684;" d="M304 658.667l310 198c18 8 32 6 44-6l94-96c8-6 12-16 12-26 0-12-2-22-10-30l-72-104h258c48 0 88-10 118-32s46-52 46-94c0-40-16-72-46-94-32-22-72-34-120-34h-90l-112-288c-2-12-8-24-16-36-8-10-16-16-24-16h-292c-4 0-30 22-78 68-46 46-70 74-70 80v448c0 10 4 20 12 30 8 12 16 20 24 26zM342 590.667v-430l84-76h250l112 290c4 12 10 24 18 34 6 12 14 18 24 18h172c12 0 22 8 26 22 6 14 6 28 2 42-6 14-14 22-28 22h-404c0 0-2 0-6 0-2 0-4 0-4 2 0 0 0 0-4 0-4 2-4 2-4 2 2 2 0 2-2 4-4 2-4 2-2 4-8 14-6 28 4 40l124 156-74 72zM42 596.667h86c12 0 22-4 30-12s12-18 12-30v-426c0-12-4-22-12-30-8-10-18-14-30-14h-86c-12 0-22 4-30 14-8 8-12 18-12 30v426c0 12 4 22 12 30s18 12 30 12z" />
<glyph unicode="&#xe685;" d="M406 856.667l312-198c0 0 2 0 4-2 4-2 8-4 12-8 6-6 12-10 16-16 4-4 8-10 12-16s6-14 6-20v-448c0-6-24-34-74-80-48-46-74-68-78-68h-292c-10 0-18 6-24 16-8 12-14 24-18 36l-112 288h-90c-48 0-88 12-118 34-32 22-48 54-48 94 0 42 16 72 46 94 32 22 70 32 118 32h258l-72 104c-6 8-10 18-10 30 2 10 4 20 12 26l94 96c12 12 28 14 46 6zM316 720.667l124-156c10-12 12-26 4-40 0-2-2-2-2-4-2-2-2-2-4-4-2 0-2 0-4-2 0 0-2 0-4 0-2-2-2-2-4-2 0 0-2 0-4 0h-422v-86h188c10 0 18-6 26-18 8-10 12-22 16-34l112-290h250l90 76v430l-292 202zM896 596.667h86c12 0 22-4 30-12s12-18 12-30v-426c0-12-4-22-12-30-8-10-18-14-30-14h-86c-12 0-22 4-30 14-8 8-12 18-12 30v426c0 12 4 22 12 30s18 12 30 12z" />
<glyph unicode="&#xe686;" d="M470 1018.667c40 0 72-16 94-46 22-32 34-72 34-120v-90l288-112c12-2 24-8 36-16 10-8 16-16 16-24v-292c0-4-22-30-68-78-46-46-74-70-80-70h-448c-10 0-20 4-30 12-12 8-20 16-26 24l-6 12-198 310c-8 18-6 32 6 44l96 94c6 8 16 12 26 12 12 0 22-2 30-10l104-72v258c0 48 10 88 32 118s52 46 94 46zM512 744.667v172c0 12-8 22-22 26-14 6-28 6-42 2-14-6-22-14-22-28v-404c0 0 0-2 0-6 0-2 0-4-2-4 0 0 0 0 0-4-2-4-2-4-2-4-2 2-2 0-4-2-2-4-2-4-4-2-14-8-28-6-40 4l-156 124-72-74 202-288h430l76 84v250l-290 112c-12 4-24 10-34 18-12 6-18 14-18 24zM384 84.667h426c12 0 22-4 30-12 10-8 14-18 14-30v-86c0-12-4-22-14-30-8-8-18-12-30-12h-426c-12 0-22 4-30 12s-12 18-12 30v86c0 12 4 22 12 30s18 12 30 12z" />
<glyph unicode="&#xe687;" d="M298 852.667h428c12 0 22 4 30 14 8 8 12 18 12 30v84c0 12-4 22-12 30-8 10-18 14-30 14h-428c-12 0-22-4-30-14-8-8-12-18-12-30v-84c0-12 4-22 12-30 8-10 18-14 30-14zM512 176.667v-92c0-48-12-86-34-118s-54-46-94-46c-40 0-72 14-94 46-22 30-32 70-32 116v258l-104-72c-8-6-18-10-28-8-12 0-20 4-28 10l-96 94c-12 14-14 28-4 46l196 310c0 0 2 2 2 4 2 2 6 6 10 12s8 10 14 14c4 4 10 8 16 12 8 4 14 6 20 6h448c8 0 34-24 80-72 46-46 70-72 70-76v-292c0-8-6-16-18-24s-22-14-34-18zM262 682.667l-200-290 70-72 156 124c12 10 26 12 40 4 2 0 2-2 4-2s2-2 4-4c0 0 2-2 2-2 0-2 2-4 2-6s0-2 0-4c2 0 2-2 2-4v-406c0-12 6-20 20-26 14-4 30-4 44 0 14 6 20 14 20 26v174c0 8 6 16 18 24s22 14 34 16l290 112v250l-76 86z" />
<glyph unicode="&#xe688;" d="M512 920.667c68 0 132-14 192-40s114-60 158-104c44-44 78-98 104-158s40-124 40-192c0-68-14-132-40-192s-60-114-104-158c-44-44-98-78-158-104s-124-40-192-40c-68 0-132 14-192 40s-114 60-158 104c-44 44-78 98-104 158s-40 124-40 192c0 68 14 132 40 192s60 114 104 158c44 44 98 78 158 104s124 40 192 40zM780 454.667l-234 190c-10 6-18 10-24 6-6-2-10-10-10-22v-116h-234c-6 0-12-2-16-8-4-4-6-8-6-14v-128c0-6 2-10 6-14 4-6 10-8 16-8h234v-116c0-12 4-20 10-22 6-4 14 0 24 6l234 190c10 8 14 18 14 28s-4 20-14 28z" />
<glyph unicode="&#xe689;" d="M512 920.667c68 0 132-14 192-40s114-60 158-104c44-44 78-98 104-158s40-124 40-192c0-68-14-132-40-192s-60-114-104-158c-44-44-98-78-158-104s-124-40-192-40c-68 0-132 14-192 40s-114 60-158 104c-44 44-78 98-104 158s-40 124-40 192c0 68 14 132 40 192s60 114 104 158c44 44 98 78 158 104s124 40 192 40zM478 644.667l-234-190c-10-8-14-18-14-28s4-20 14-28l234-190c10-6 18-10 24-6 6 2 10 10 10 22v116h234c6 0 12 2 16 8 4 4 6 8 6 14v128c0 6-2 10-6 14-4 6-10 8-16 8h-234v116c0 12-4 20-10 22-6 4-14 0-24-6z" />
<glyph unicode="&#xe68a;" d="M512 920.667c68 0 132-14 192-40s114-60 158-104c44-44 78-98 104-158s40-124 40-192c0-68-14-132-40-192s-60-114-104-158c-44-44-98-78-158-104s-124-40-192-40c-68 0-132 14-192 40s-114 60-158 104c-44 44-78 98-104 158s-40 124-40 192c0 68 14 132 40 192s60 114 104 158c44 44 98 78 158 104s124 40 192 40zM730 460.667l-190 234c-8 10-18 14-28 14s-20-4-28-14l-190-234c-6-10-10-18-6-24 2-6 10-10 22-10h116v-234c0-6 2-12 8-16 4-4 8-6 14-6h128c6 0 10 2 14 6 6 4 8 10 8 16v234h116c12 0 20 4 22 10 4 6 0 14-6 24z" />
<glyph unicode="&#xe68b;" d="M512 920.667c68 0 132-14 192-40s114-60 158-104c44-44 78-98 104-158s40-124 40-192c0-68-14-132-40-192s-60-114-104-158c-44-44-98-78-158-104s-124-40-192-40c-68 0-132 14-192 40s-114 60-158 104c-44 44-78 98-104 158s-40 124-40 192c0 68 14 132 40 192s60 114 104 158c44 44 98 78 158 104s124 40 192 40zM576 682.667h-128c-6 0-10-2-14-6-6-4-8-10-8-16v-234h-116c-12 0-20-4-22-10-4-6 0-14 6-24l190-234c8-10 18-14 28-14s20 4 28 14l190 234c6 10 10 18 6 24-2 6-10 10-22 10h-116v234c0 6-2 12-8 16-4 4-8 6-14 6z" />
<glyph unicode="&#xe68c;" d="M512 918.667c66 0 130-14 190-40s112-62 156-106c44-44 80-96 106-156s40-124 40-190c0-66-14-130-40-190s-62-112-106-156c-44-44-96-80-156-106s-124-40-190-40c-66 0-130 14-190 40s-112 62-156 106c-44 44-80 96-106 156s-40 124-40 190c0 66 14 130 40 190s62 112 106 156c44 44 96 80 156 106s124 40 190 40zM536 854.667c-10-8-20-14-32-18s-22-8-30-10c-8-2-20-4-38-8-16-2-26-4-32-4-8-2-22-2-40 0-16 2-30 0-38-2-12-4-26-12-44-22-18-12-28-22-30-30-2-6 0-14 6-20s8-12 8-16c-2-18-10-44-24-76-14-34-22-56-26-68-4-20-2-46 6-80 6-34 10-58 6-74 0-6 4-18 14-38s14-38 14-50c6 0 14-2 20-6 6-2 12-6 20-12 6-6 12-10 16-12 10-4 18-8 28-12s22-8 36-14c12-4 22-8 28-10 12-4 28-14 46-26 18-14 34-24 50-34 16-8 34-10 50-8 4-10 2-18-4-30-4-10-12-22-18-34-8-12-10-22-8-32 8-12 14-22 20-30 4-8 12-16 22-24s22-12 32-14c0-4-2-10-4-14-2-6-2-10-2-12 0-4 2-8 4-14 60-2 122 30 188 94 18 18 32 30 40 42 10 10 20 24 30 40 10 18 16 36 18 54-8 6-18 8-32 8s-24 2-30 6c-8 4-24 8-42 14-20 4-34 8-44 16-10 0-22 0-36-2-12 0-24 0-36 0-12-2-24-2-36-6s-24-8-32-14c-30-20-48-24-56-10-4 0-4 8-4 22s0 20 0 22c-2 6-10 12-22 14s-18 4-20 6c0 8 0 16-2 26 0 8-2 16-6 24-2 6-8 10-16 10-6-2-16-8-26-18-12-14-24-14-36 2-10 16-12 34-6 50 4 10 10 16 18 20 4-2 12-2 22-2 12 0 22-2 30-4 6-2 12-6 16-12s8-12 16-20c6-6 12-12 18-18 6-4 12-8 16-12 6-4 10-6 14-8l4-4c2 8 4 16 6 26 4 12 6 22 8 30 0 10 0 18-2 28 0 10 0 18 4 24s8 12 16 20c6 6 10 12 12 20 4 8 6 18 10 30 2 12 4 20 6 26s6 12 14 20c6 6 16 14 28 20-2 10 0 20 10 30 4 0 10 0 20-2 8 0 16 0 20 0 6 0 12 0 18 4 6 2 12 6 18 12-6 14-16 26-28 36-12 12-22 20-32 26-8 6-22 14-42 22-18 10-30 16-36 20 0 0 0 4 2 8 0 4 2 6 2 8 0 4 0 6 2 10 0 4 0 6-2 8 0 2-2 4-4 4 18-8 34-12 50-12 16-2 28 0 34 2l10 4c2 16 0 28-8 40-8 10-20 16-32 20s-26 8-42 12c-16 6-28 12-36 18-10-2-20-2-30 0zM524 762.667c0-10 2-22 6-36s10-26 14-38c6-12 8-18 8-20-4 0-16 2-34 6-18 2-32 4-44 8-12 2-22 8-32 14 2 6 6 14 14 24 8 12 12 18 14 22 6-6 10-8 16-8 4 0 8 2 12 6 2 2 6 6 12 12 4 4 8 8 14 10z" />
<glyph unicode="&#xe68d;" d="M646 902.667c92 52 180 50 260-8l-220-118 122-198 216 108c2-52-8-96-30-134s-56-70-100-94c-34-20-70-32-108-34-38-4-74 2-108 14l-508-508c-8-10-20-14-32-14s-22 4-30 14l-96 94c-8 8-12 18-12 30s4 24 12 32l512 512c-18 56-16 114 6 172 22 56 60 100 116 132z" />
<glyph unicode="&#xe68e;" d="M84 926.667h840c22 0 42-8 58-24 16-18 26-36 26-60v-84c0-22-10-42-26-58-16-18-36-26-58-26h-840c-24 0-42 8-60 26-16 16-24 36-24 58v84c0 24 8 42 24 60 18 16 36 24 60 24zM924 842.667h-168v-84h168zM84 590.667h840c22 0 42-8 58-24s26-36 26-60v-84c0-22-10-42-26-58-16-18-36-26-58-26h-840c-24 0-42 8-60 26-16 16-24 36-24 58v84c0 24 8 44 24 60 18 16 36 24 60 24zM924 506.667h-420v-84h420zM84 254.667h840c22 0 42-8 58-24s26-36 26-60v-84c0-22-10-42-26-58s-36-26-58-26h-840c-24 0-42 10-60 26-16 16-24 36-24 58v84c0 24 8 44 24 60 18 16 36 24 60 24zM924 170.667h-252v-84h252z" />
<glyph unicode="&#xe68f;" d="M128 938.667h768c12 0 22-4 30-12s12-18 12-30c0-12-4-22-12-30-8-10-18-14-30-14h-768c-12 0-22 4-30 14-8 8-12 18-12 30s4 22 12 30c8 8 18 12 30 12zM598 340.667v-256l-172-170v426l-298 428h768z" />
<glyph unicode="&#xe690;" d="M426 938.667h172c22 0 42-8 60-26 16-16 24-36 24-60v-84h256c24 0 44-10 60-26 18-16 26-36 26-60v-342h-426v86h-172v-86h-426v342c0 24 8 44 26 60 16 16 36 26 60 26h256v84c0 24 8 44 24 60 18 18 38 26 60 26zM426 852.667v-84h172v84zM1024 256.667v-172c0-22-8-42-26-60-16-16-36-24-60-24h-852c-24 0-44 8-60 24-18 18-26 38-26 60v172z" />
<glyph unicode="&#xe691;" d="M42 938.667h256c12 0 20-2 22-8s0-14-8-22l-80-80 170-170c4-4 6-10 6-16 0-4-2-10-6-14l-92-92c-4-4-10-6-14-6-6 0-12 2-16 6l-170 170-80-80c-8-8-16-10-22-8s-8 10-8 22v256c0 12 4 22 12 30s18 12 30 12zM726 938.667h256c12 0 22-4 30-12s12-18 12-30v-256c0-12-2-20-8-22s-14 0-22 8l-80 80-170-170c-4-4-10-6-16-6-4 0-10 2-14 6l-92 92c-4 4-6 10-6 14 0 6 2 12 6 16l170 170-80 80c-8 8-10 16-8 22s10 8 22 8zM310 316.667l92-92c4-4 6-10 6-14 0-6-2-12-6-16l-170-170 80-80c8-8 10-16 8-22s-10-8-22-8h-256c-12 0-22 4-30 12s-12 18-12 30v256c0 12 2 20 8 22s14 0 22-8l80-80 170 170c4 4 10 6 16 6 4 0 10-2 14-6zM914 146.667l80 80c8 8 16 10 22 8s8-10 8-22v-256c0-12-4-22-12-30s-18-12-30-12h-256c-12 0-20 2-22 8s0 14 8 22l80 80-170 170c-4 4-6 10-6 16 0 4 2 10 6 14l92 92c4 4 10 6 14 6 6 0 12-2 16-6z" />
<glyph unicode="&#xe692;" d="M508 932.667c70 0 136-14 198-42 62-26 118-62 162-108 46-44 82-100 108-162 28-62 42-128 42-198 0-68-14-134-42-196-26-64-62-118-108-164-44-46-100-82-162-108s-128-40-198-40c-68 0-134 14-196 40-64 26-118 62-164 108s-82 100-108 164c-26 62-40 128-40 196 0 70 14 136 40 198s62 118 108 162c46 46 100 82 164 108 62 28 128 42 196 42zM508 776.667c-64 0-122-16-176-48s-98-74-130-128c-30-54-46-114-46-178s16-122 46-176c32-54 76-98 130-130 54-30 112-46 176-46s124 16 178 46c54 32 96 76 128 130s48 112 48 176c0 64-16 124-48 178s-74 96-128 128c-54 32-114 48-178 48zM388 686.667c12 0 24-4 32-14 10-8 14-20 14-32 0-14-4-24-14-34-8-8-20-14-32-14s-24 6-34 14c-8 10-12 20-12 34 0 12 4 24 12 32 10 10 22 14 34 14zM644 686.667c12 0 24-4 32-14 10-8 14-20 14-32 0-14-4-24-14-34-8-8-20-14-32-14-8 0-16 4-24 8l-48-122c10-14 16-28 16-44 0-20-8-38-22-52-16-16-32-22-54-22-20 0-38 6-52 22-14 14-22 32-22 52 0 18 6 34 18 48s26 22 44 26l106 108c-6 8-8 16-8 24 0 12 4 24 12 32 10 10 22 14 34 14zM294 520.667c14 0 24-6 34-14 8-10 14-20 14-34 0-12-6-24-14-32-10-10-20-14-34-14-12 0-22 4-32 14-10 8-14 20-14 32 0 14 4 24 14 34 10 8 20 14 32 14zM730 520.667c12 0 22-6 32-14 10-10 14-20 14-34 0-12-4-24-14-32-10-10-20-14-32-14-14 0-24 4-34 14-8 8-14 20-14 32 0 14 6 24 14 34 10 8 20 14 34 14z" />
<glyph unicode="&#xe693;" d="M466 62.667l400 400c52 52 80 108 84 164s-10 106-44 150c-34 44-78 72-132 80-12 4-26 4-40 4-18 0-38-2-56-8s-34-12-48-20c-14-8-30-18-48-32s-32-26-40-36c-10-10-24-22-42-40-214-214-326-324-334-332-16-16-30-28-38-36s-20-20-32-36c-12-14-22-28-28-40-4-10-10-24-12-40-4-16-6-32-2-48 4-36 20-62 46-80 24-20 54-30 84-30 42 0 78 16 106 44l468 468c22 20 26 42 18 64-4 10-10 16-18 22s-18 8-28 8c-16 0-30-6-44-18-6-8-18-18-32-34l-292-288c-8-8-18-12-30-12-12-2-22 2-30 10s-12 18-12 30c0 12 4 22 12 30 186 188 290 294 308 312 20 20 40 36 58 44 20 10 42 14 68 14 8 0 16 0 24 0 26-4 46-14 64-30s30-36 38-58c6-28 8-56 0-84-6-28-20-52-40-72-6-6-16-14-26-26-12-12-34-36-68-70s-66-66-98-98c-32-32-66-66-106-106-40-38-76-72-106-102-30-28-58-54-82-76-24-20-40-34-48-38-32-14-66-22-102-22-40 0-78 8-110 26-34 18-60 44-80 76-28 44-38 94-30 148s30 100 68 140l438 436c40 40 72 68 94 82 52 30 108 46 168 46 46 0 90-10 130-28 44-20 82-50 110-88 30-38 50-82 58-132 10-52 6-104-10-156s-42-96-80-134l-412-406c-8-8-18-12-30-14-12 0-22 4-32 12-8 10-14 18-14 30-2 10 2 20 12 30z" />
<glyph unicode="&#xe694;" d="M554 724.667c28 38 58 68 94 88 34 22 68 32 102 34 36 0 68-4 102-18 34-12 62-30 88-54 24-24 44-52 60-86s24-68 24-104c0-34-10-66-30-102-18-34-46-70-80-106s-70-72-108-108c-38-36-80-80-128-130-48-52-88-100-124-148-36 48-76 96-124 148-48 50-90 94-128 130s-74 72-108 108c-34 36-62 72-80 106-20 36-28 68-28 102 0 36 8 70 24 104s36 62 62 86c26 24 54 42 88 54 34 14 68 18 102 18 34-2 68-12 102-34 36-20 64-50 90-88zM764 744.667c-18 0-36-6-54-16-18-12-34-24-48-40s-28-30-42-46c-12-14-24-28-36-38-12-12-22-16-32-16s-20 4-32 16c-10 10-22 24-34 38-10 16-24 30-36 46s-28 28-46 40c-18 10-36 16-56 16-38 0-72-16-104-48s-48-70-48-112c0-14 4-28 12-44s20-34 40-56c18-22 34-38 48-54 14-14 36-36 64-64l20-18c8-8 20-20 38-38 16-18 30-32 42-44s26-24 40-38c14-12 26-22 34-28 10-8 16-12 20-12s10 4 20 12c10 6 22 16 36 30 16 14 28 26 40 38 12 10 26 26 44 44s32 30 38 36c2 2 6 6 10 12 24 22 42 40 54 52s28 28 44 48c18 18 32 34 40 46s16 26 22 40c6 14 10 26 10 38 0 44-14 82-46 112-30 32-64 48-102 48z" />
<glyph unicode="&#xe695;" d="M662 950.667c54 0 100-18 136-56l122-120c36-38 56-84 56-138 0-24-8-50-24-80-16-32-34-56-54-76l-24-24c-18 30-40 58-66 84l-16 16 82 80-210 212-332-332 180-180-90-90-16 14-120 120c-38 38-56 84-56 136 0 54 18 98 56 136l242 242c36 38 82 56 134 56zM512 516.667l90 90c6-4 10-10 16-14l120-120c38-38 56-84 56-136 0-54-18-98-56-136l-242-242c-36-38-82-56-136-56-52 0-98 18-134 56l-122 120c-36 38-56 84-56 136 0 54 20 100 56 136l48 48c16-32 38-60 64-88l16-14-82-80 210-212 332 332z" />
<glyph unicode="&#xe696;" d="M514 938.667c48 0 94-4 138-12 44-10 80-20 110-34 28-12 50-26 66-40 18-14 26-28 26-40v-812c0-24-10-44-26-60-16-18-36-26-60-26h-512c-24 0-44 8-60 26-16 16-26 36-26 60v812c0 12 10 26 26 40 18 14 40 28 70 42 28 12 66 22 110 32 44 8 90 12 138 12zM256 768.667v-598h512v598zM512 130.667c-24 0-46-8-62-26-18-16-26-38-26-62s8-46 26-62c16-18 38-26 62-26s46 8 62 26c18 16 26 38 26 62s-8 46-26 62c-16 18-38 26-62 26z" />
<glyph unicode="&#xe697;" d="M770 926.667l242-242c8-8 12-18 12-30s-4-22-12-30c-8-8-18-12-30-12s-22 4-30 12l-32 30-238-228v-256l-180 180-264-262-238-174 174 238 262 264-180 180h256l228 238-30 32c-8 8-12 18-12 30s4 22 12 30c8 8 18 12 30 12s22-4 30-12z" />
<glyph unicode="&#xe698;" d="M598 978.667v-66c20-2 42-6 62-12 18-6 40-14 64-26 22-14 44-28 60-46 18-18 32-42 44-72 14-30 20-64 22-102h-136c-2 22-6 38-10 52-4 12-10 24-18 38-8 12-20 22-34 30s-32 14-54 18v-262l54-12c20-4 38-8 54-14 18-6 38-14 60-28 24-12 42-26 58-44s30-40 40-68c12-28 18-60 18-96 0-78-26-142-76-192-52-48-120-74-208-82v-66h-86v68c-86 10-152 38-202 88-22 22-38 50-46 80-6 30-10 70-12 118h118c4-44 16-80 42-106 24-28 58-48 100-56v286l-24 6c-26 8-48 16-66 22-20 8-40 18-62 32s-40 28-54 44c-14 16-24 36-34 62-8 24-14 52-14 84 0 40 8 76 22 108 14 30 34 58 58 78s50 36 80 48c30 12 62 20 94 24v64zM512 558.667v234c-16-4-30-6-42-10s-24-10-36-18c-12-8-22-20-28-36s-8-34-8-56c0-16 2-30 6-42s8-22 14-30c6-6 14-14 24-18 10-6 20-10 26-12 8-2 18-6 32-10 6 0 10-2 12-2zM598 380.667v-264c12 2 24 4 36 6s24 6 38 14c14 6 26 12 36 22s18 22 24 36c6 14 10 32 10 50 0 20-4 36-10 52-8 14-18 26-32 38-16 10-30 18-46 26-16 6-34 14-56 20z" />
<glyph unicode="&#xe699;" d="M478 936.667c48 0 94-12 138-34 44-24 78-54 106-94 26-40 40-82 40-126h-132c0 22-4 44-16 62-12 16-26 30-42 40-18 10-34 18-52 22-16 6-32 8-46 8-22 0-44-4-68-12s-42-18-52-30c-24-26-36-54-36-86 0-16 4-34 12-54 8-22 16-38 22-52 8-14 18-32 32-56 4-6 6-10 8-12h206v-86h-168c4-28 4-62-2-98-6-38-16-64-28-82-26-34-54-66-84-94 20 4 42 10 70 14s48 6 62 6c18 2 46-4 86-14 40-8 70-14 88-14 48 0 86 8 116 26l44-126c-18-10-34-18-50-26-16-6-30-10-46-12s-28-4-36-4c-8 0-22 0-40 0-12 0-34 4-64 14s-62 18-96 28c-32 8-60 12-82 10s-44-8-70-14c-24-8-42-16-56-22l-20-10-48 124c4 2 8 6 14 10 8 4 12 8 14 8 2 2 6 4 10 8 6 4 10 8 14 10 4 4 8 8 12 12 6 6 10 10 16 16 26 32 42 68 46 108 2 42-6 82-26 122h-188v86h140c-12 26-24 56-36 88-4 12-8 24-10 36-4 12-6 28-6 46 0 20 2 40 6 58s12 38 24 60c14 22 30 42 50 60 56 50 130 76 224 76z" />
<glyph unicode="&#xe69a;" d="M342 170.667h128c12 0 18-4 20-10s0-12-8-20l-196-214c-8-8-18-12-30-12s-22 4-30 12l-196 214c-8 8-10 14-8 20s8 10 20 10h128v768h172zM798 924.667l196-212c8-8 10-16 8-22s-8-8-20-8h-128v-768h-172v768h-128c-12 0-18 2-20 8s0 14 8 22l196 212c8 8 18 14 30 14s22-6 30-14z" />
<glyph unicode="&#xe69b;" d="M854 512.667h-86v84h-86v-84h-84v426h256zM342 170.667h128c12 0 18-4 20-10s0-12-8-20l-196-214c-8-8-18-12-30-12s-22 4-30 12l-196 214c-8 8-10 14-8 20s8 10 20 10h128v768h172zM684 852.667v-170h84v170zM854 212.667l-172-212h172v-86h-256v128l170 214h-170v84h256z" />
<glyph unicode="&#xe69c;" d="M342 170.667h128c12 0 18-4 20-10s0-12-8-20l-196-214c-8-8-18-12-30-12s-22 4-30 12l-196 214c-8 8-10 14-8 20s8 10 20 10h128v768h172zM854 810.667l-172-214h172v-84h-256v128l170 212h-170v86h256zM854-85.333h-86v86h-86v-86h-84v426h256zM684 256.667v-172h84v172z" />
<glyph unicode="&#xe69d;" d="M342 170.667h128c12 0 18-4 20-10s0-12-8-20l-196-214c-8-8-18-12-30-12s-22 4-30 12l-196 214c-8 8-10 14-8 20s8 10 20 10h128v768h172zM854 512.667h-86v340h-86v86h172zM938-85.333h-84v86h-172v340h256zM768 256.667v-172h86v172z" />
<glyph unicode="&#xe69e;" d="M342 170.667h128c12 0 18-4 20-10s0-12-8-20l-196-214c-8-8-18-12-30-12s-22 4-30 12l-196 214c-8 8-10 14-8 20s8 10 20 10h128v768h172zM938 512.667h-84v84h-172v342h256zM768 852.667v-170h86v170zM854-85.333h-86v342h-86v84h172z" />
<glyph unicode="&#xe69f;" d="M342 170.667h128c12 0 18-4 20-10s0-12-8-20l-196-214c-8-8-18-12-30-12s-22 4-30 12l-196 214c-8 8-10 14-8 20s8 10 20 10h128v768h172zM768 768.667h-170v170h170zM854 512.667h-256v170h256zM938 256.667h-340v170h340zM1024 0.667h-426v170h426z" />
<glyph unicode="&#xe6a0;" d="M342 170.667h128c12 0 18-4 20-10s0-12-8-20l-196-214c-8-8-18-12-30-12s-22 4-30 12l-196 214c-8 8-10 14-8 20s8 10 20 10h128v768h172zM1024 768.667h-426v170h426zM938 512.667h-340v170h340zM854 256.667h-256v170h256zM768 0.667h-170v170h170z" />
<glyph unicode="&#xe6a1;" d="M298 852.667h342c92 0 164-26 218-80 54-52 80-126 80-218v-342c0-94-26-166-80-220-52-52-126-78-218-78h-342c-94 0-166 26-220 78-52 54-78 126-78 220v342c0 94 26 168 78 220 54 52 126 78 220 78zM682 682.667h-426c-24 0-44-8-60-26-16-16-26-36-26-60v-426c0-24 10-44 26-60s36-26 60-26h426c24 0 44 10 60 26 18 16 26 36 26 60v426c0 24-8 44-26 60-16 18-36 26-60 26z" />
<glyph unicode="&#xe6a2;" d="M298 852.667h342c94 0 168-26 220-78s78-126 78-220v-342c0-94-26-166-78-220-52-52-126-78-220-78h-342c-92 0-166 26-218 78-54 54-80 126-80 220v342c0 92 26 166 80 218 54 54 126 80 218 80zM682 682.667h-426c-24 0-44-8-60-26-16-16-26-36-26-60v-426c0-24 10-44 26-60s36-26 60-26h426c24 0 44 10 60 26 18 16 26 36 26 60v426c0 24-8 44-26 60-16 18-36 26-60 26zM376 572.667l216-164c10-6 14-14 14-24s-4-20-14-26l-216-162c-10-8-18-10-24-6-8 4-10 10-10 22v342c0 12 2 20 10 22 6 4 14 2 24-4z" />
<glyph unicode="&#xe6a3;" d="M298 852.667h342c92 0 166-26 218-80 54-54 80-126 80-218v-342c0-94-26-166-78-220-52-52-126-78-220-78h-342c-94 0-166 26-220 78-52 54-78 126-78 220v342c0 92 26 166 78 218 54 54 126 80 220 80zM682 682.667h-426c-24 0-44-8-60-26-16-16-26-36-26-60v-426c0-24 10-44 26-60s36-26 60-26h426c24 0 44 10 60 26 18 16 26 36 26 60v426c0 24-8 44-26 60-16 18-36 26-60 26zM298 512.667h342c12 0 20-4 22-10 4-8 2-16-4-24l-164-216c-6-10-14-16-24-16s-20 6-26 16l-162 216c-8 8-10 16-6 24 4 6 10 10 22 10z" />
<glyph unicode="&#xe6a4;" d="M298 852.667h342c94 0 168-26 220-78s78-126 78-220v-342c0-92-26-166-78-218-52-54-126-80-220-80h-342c-92 0-166 26-218 80-54 54-80 126-80 218v342c0 94 26 168 78 220 54 52 126 78 220 78zM682 682.667h-426c-24 0-44-8-60-26-16-16-26-36-26-60v-426c0-24 10-44 26-60s36-26 60-26h426c24 0 44 10 60 26 18 16 26 36 26 60v426c0 24-8 44-26 60-16 18-36 26-60 26zM494 506.667l164-216c6-10 8-18 4-24-2-8-10-10-22-10h-342c-12 0-18 2-22 10-4 6-2 14 6 24l162 216c6 10 16 14 26 14s18-4 24-14z" />
<glyph unicode="&#xe6a5;" d="M470 852.667h340c94 0 168-26 220-78 54-52 80-126 80-220v-342c0-94-26-166-80-220-52-52-126-78-220-78h-340c-12 0-22 4-30 12-10 8-14 18-14 30v86c0 12 4 22 14 30 8 8 18 12 30 12h384c22 0 42 10 60 26 16 16 24 36 24 60v426c0 24-8 44-24 60-18 18-38 26-60 26h-384c-12 0-22 4-30 12-10 8-14 18-14 30v86c0 12 4 22 14 30 8 8 18 12 30 12zM288 654.667l276-242c10-8 14-18 14-28 0-12-4-20-14-28l-276-244c-8-8-16-10-22-6-6 2-10 10-10 22v128h-214c-12 0-22 4-30 12s-12 18-12 30v170c0 12 4 22 12 30 8 10 18 14 30 14h214v128c0 12 4 18 10 22 6 2 14 0 22-8z" />
<glyph unicode="&#xe6a6;" d="M676 922.667l8-8c4-4 6-12 4-22-2-6-24-70-66-192-44-122-66-186-68-190l256 2c14 0 24-6 28-16 6-10 4-20-4-30 0 0-38-44-114-132s-152-178-228-266c-76-90-116-136-118-140-8-8-14-12-22-12h-8l-8 6c-4 6-6 16-4 28 2 4 14 40 36 106 24 64 46 128 68 190l34 94h-258c-14 0-22 6-26 16-6 12-4 24 4 36 42 48 102 116 180 202 76 86 140 160 194 220 52 60 80 92 84 94 4 10 12 14 22 14z" />
<glyph unicode="&#xe6a7;" d="M298 852.667h342c12 0 22-4 30-12s12-18 12-30v-86c0-12-4-22-12-30s-18-12-30-12h-384c-24 0-44-8-60-26-16-16-26-36-26-60v-426c0-24 10-44 26-60s36-26 60-26h384c12 0 22-4 30-12s12-18 12-30v-86c0-12-4-22-12-30s-18-12-30-12h-342c-94 0-166 26-220 78-52 54-78 126-78 220v342c0 94 26 168 78 220 54 52 126 78 220 78zM800 654.667l276-242c10-8 14-18 14-28 0-12-4-20-14-28l-276-244c-8-8-16-10-22-6-6 2-10 10-10 22v128h-214c-12 0-22 4-30 12s-12 18-12 30v170c0 12 4 22 12 30 8 10 18 14 30 14h214v128c0 12 4 18 10 22 6 2 14 0 22-8z" />
<glyph unicode="&#xe6a8;" d="M640 938.667h342c12 0 22-4 30-12s12-18 12-30v-342c0-12-2-20-8-22s-14 2-22 10l-92 92-268-266c-8-8-18-12-30-12s-22 4-30 12l-120 120c-8 8-12 18-12 30s4 22 12 30l266 268-92 92c-8 8-12 16-10 22s10 8 22 8zM390 682.667h-134c-24 0-44-8-60-26-16-16-26-36-26-60v-426c0-24 10-44 26-60s36-26 60-26h426c24 0 44 10 60 26 18 16 26 36 26 60v126l170 170v-254c0-94-26-166-80-220-52-52-126-78-218-78h-342c-94 0-166 26-220 78-52 54-78 126-78 220v342c0 94 26 168 78 220 54 52 126 78 220 78h256z" />
<glyph unicode="&#xe6a9;" d="M512 926.667c68 0 132-14 194-40s116-62 160-106c44-44 80-98 106-160s40-126 40-194c0-68-14-132-40-194s-62-116-106-160c-44-44-98-80-160-106s-126-40-194-40c-68 0-132 14-194 40s-116 62-160 106c-44 44-80 98-106 160s-40 126-40 194c0 68 14 132 40 194s62 116 106 160c44 44 98 80 160 106s126 40 194 40zM512 786.667c-66 0-126-16-180-48-56-32-100-76-132-132-32-54-48-114-48-180s16-126 48-180c32-56 76-100 132-132 54-32 114-48 180-48s126 16 180 48c56 32 100 76 132 132 32 54 48 114 48 180s-16 126-48 180c-32 56-76 100-132 132-54 32-114 48-180 48zM512 592.667c46 0 84-16 116-50 34-32 50-70 50-116s-16-84-50-116c-32-34-70-50-116-50s-84 16-116 50c-34 32-50 70-50 116s16 84 50 116c32 34 70 50 116 50z" />
<glyph unicode="&#xe6aa;" d="M384 938.667h170c12 0 22-4 30-12 10-8 14-18 14-30v-300h208c12 0 18-2 22-8 2-6 0-14-8-22l-326-364c-8-8-18-14-30-14-10 0-20 6-28 14l-322 364c-8 8-10 16-8 22s10 8 22 8h214v300c0 12 4 22 12 30s18 12 30 12zM42 170.667h854c12 0 22-4 30-12s12-18 12-30v-214h-938v214c0 12 4 22 12 30s18 12 30 12zM768 84.667v-42h86v42z" />
<glyph unicode="&#xe6ab;" d="M498 922.667l322-370c8-10 10-18 8-28-4-8-10-12-22-12h-208v-214c0-12-6-22-16-30-8-8-20-12-32-12h-172c-10 0-20 4-26 12-8 8-10 18-10 30v214h-214c-12 0-18 4-22 14-2 8 0 18 8 26l326 368c8 10 18 14 28 14 12 2 22-2 30-12zM42 170.667h854c12 0 22-4 30-12s12-18 12-30v-214h-938v214c0 12 4 22 12 30s18 12 30 12zM768 84.667v-42h86v42z" />
<glyph unicode="&#xe6ac;" d="M338 530.667l314 316c4 4 10 6 16 6s10-2 14-6l120-118c4-6 6-10 6-16s-2-12-6-16l-448-448c-4-4-10-6-16-6s-10 2-14 6l-250 248c-4 6-6 10-6 16s2 10 6 16l118 118c6 4 10 6 16 6s12-2 16-6zM42 170.667h854c12 0 22-4 30-12s12-18 12-30v-214h-938v214c0 12 4 22 12 30s18 12 30 12zM768 84.667v-42h86v42z" />
<glyph unicode="&#xe6ad;" d="M116 786.667l120 122c8 8 18 12 30 12s22-4 30-12l66-66-182-180-64 64c-8 8-12 20-12 32s4 20 12 28zM558 644.667l180 178c8 8 16 12 22 10s8-10 8-22l-2-512c0-10-4-20-12-30-10-8-20-12-32-12h-508c-12 0-20 2-22 8s0 14 8 22l178 176-132 132 182 182zM42 170.667h854c12 0 22-4 30-12s12-18 12-30v-214h-938v214c0 12 4 22 12 30s18 12 30 12zM768 84.667v-42h86v42z" />
<glyph unicode="&#xe6ae;" d="M298 938.667l512-2c12 0 22-4 30-12 8-10 12-20 12-32l2-508c0-12-4-20-10-22s-12 0-20 8l-178 178-132-132-182 182 134 130-180 180c-8 8-10 16-8 22s8 8 20 8zM448 350.667l-66-64c-8-8-18-12-30-12s-22 4-30 12l-122 120c-8 8-12 18-12 30s4 22 12 30l66 66zM42 170.667h854c12 0 22-4 30-12s12-18 12-30v-214h-938v214c0 12 4 22 12 30s18 12 30 12zM768 84.667v-42h86v42z" />
<glyph unicode="&#xe6af;" d="M1024 2.667l-412 236-268-342v362h-340l1020 680zM412 276.667v-196l582 812z" />
<glyph unicode="&#xe6b0;" d="M938 768.667v-726c0-12-4-22-12-30s-18-12-30-12h-128v340h-598v-340h-128c-12 0-22 4-30 12s-12 18-12 30v854c0 10 4 20 12 30 8 8 18 12 30 12h214v-256h426v256h86zM598 768.667h-86v170h86z" />
<glyph unicode="&#xe6b1;" d="M938 768.667l-2-128-254-254-82 80c-4 6-10 8-18 8-6 0-12-2-18-8l-128-126h-266v-340h-128c-12 0-22 4-30 12s-12 18-12 30v854c0 10 4 20 12 30 8 8 18 12 30 12h214v-256h426v256h86zM598 768.667h-86v170h86zM966 458.667l90-90c4-4 6-8 6-14s-2-12-6-16l-358-360c-4-4-10-6-16-6s-10 2-14 6l-174 174c-4 4-6 10-6 16 0 4 2 10 6 14l92 90c4 4 8 8 14 8s12-4 16-8l66-68 254 254c4 4 10 6 16 6s10-2 14-6z" />
<glyph unicode="&#xe6b2;" d="M938 768.667v-230l-88-88-114 114c-8 8-18 14-28 14-10 2-20-2-30-10l-226-228h-282v-340h-128c-12 0-22 4-30 12s-12 18-12 30v854c0 10 4 20 12 30 8 8 18 12 30 12h214v-256h426v256h86zM598 768.667h-86v170h86zM1026 402.667l60-60c8-8 12-18 12-30s-4-22-12-30l-112-112 112-112c8-8 12-18 12-30s-4-22-12-30l-60-60c-8-8-18-12-30-12s-22 4-30 12l-112 112-112-112c-8-8-20-12-30-12-12 0-22 4-32 12l-58 60c-10 8-14 18-14 30s4 22 14 30l112 112-112 112c-10 8-14 18-14 30s4 22 14 30l58 60c10 8 20 12 32 12 10 0 22-4 30-12l112-112 112 112c8 8 18 12 30 12s22-4 30-12z" />
<glyph unicode="&#xe6b3;" d="M938 768.667v-256h-298c-12 0-22-4-30-14-8-8-12-18-12-30v-128h-428v-340h-128c-12 0-22 4-30 12s-12 18-12 30v854c0 10 4 20 12 30 8 8 18 12 30 12h214v-256h426v256h86zM598 768.667h-86v170h86zM726 426.667h84c12 0 22-4 30-12 10-8 14-18 14-30v-214h128c12 0 18-2 20-8s0-14-8-22l-196-196c-8-8-18-12-30-12s-22 4-30 12l-196 196c-8 8-10 16-8 22s8 8 20 8h128v214c0 12 4 22 14 30 8 8 18 12 30 12z" />
<glyph unicode="&#xe6b4;" d="M938 768.667v-342l-140 140c-8 10-18 14-30 14s-22-4-30-14l-224-226h-344v-340h-128c-12 0-22 4-30 12s-12 18-12 30v854c0 10 4 20 12 30 8 8 18 12 30 12h214v-256h426v256h86zM598 768.667h-86v170h86zM798 396.667l196-196c8-8 10-16 8-22s-8-8-20-8h-128v-214c0-10-4-20-14-30-8-8-18-12-30-12h-84c-12 0-22 4-30 12-10 10-14 20-14 30v214h-128c-12 0-18 2-20 8s0 14 8 22l196 196c8 8 18 12 30 12s22-4 30-12z" />
<glyph unicode="&#xe6b5;" d="M42 852.667h940c12 0 22-4 30-12s12-18 12-30v-128h-1024v128c0 12 4 22 12 30s18 12 30 12zM1024 596.667v-468c0-12-4-22-12-30-8-10-18-14-30-14h-940c-12 0-22 4-30 14-8 8-12 18-12 30v468zM86 340.667v-170h340v170z" />
<glyph unicode="&#xe6b6;" d="M798 908.667l212-196c8-8 12-18 12-30s-4-22-12-30l-212-196c-8-8-16-10-22-8s-8 8-8 20v128h-342v172h342v128c0 12 2 18 8 20s14 0 22-8zM170 596.667h-42c-12 0-22 4-30 14-8 8-12 18-12 30v84c0 12 4 22 12 30 8 10 18 14 30 14h42zM342 596.667h-86v172h86zM16 286.667l210 196c8 8 16 10 22 8s8-10 8-22v-128h342v-170h-342v-128c0-12-2-20-8-22s-14 2-22 10l-210 196c-10 8-14 18-14 30s4 22 14 30zM768 170.667h-86v170h86zM854 340.667h42c12 0 22-4 30-12s12-18 12-30v-86c0-12-4-22-12-30s-18-12-30-12h-42z" />
<glyph unicode="&#xe6b7;" d="M736 830.667l236 98c14 10 26 14 36 8s16-18 16-36v-944c0-12-4-22-12-30s-18-12-30-12h-172c-12 0-22 4-30 12s-12 18-12 30v340c-2 0-6 2-10 4s-10 6-20 14c-10 8-18 16-26 26-6 8-14 20-20 36-6 14-10 30-10 48v306c0 18 6 36 16 56 10 18 24 34 38 44zM470 938.667c12 0 22-4 28-10 8-8 12-14 14-22v-394c0-16-2-34-8-52s-14-34-22-48c-8-14-16-26-26-38-8-12-14-20-20-26l-10-10v-382c0-12-4-22-12-30s-18-12-30-12h-170c-12 0-22 4-30 12-10 8-14 18-14 30v382c-2 2-4 6-8 10s-12 12-22 26c-8 14-18 26-24 40-8 12-16 28-22 46s-8 36-8 52v384c0 0 0 2 0 4s2 6 4 10c2 6 4 10 6 14 4 2 8 6 12 10 6 2 12 4 20 4 12 0 20-4 28-10 6-8 10-14 12-22l2-10v-300h86v304c0 0 0 4 2 10 2 8 4 12 6 14 2 0 6 4 12 10 6 4 14 6 22 4 14 0 24-4 30-10 8-8 12-14 12-22l2-10v-300h84v300c0 0 0 2 2 4 0 2 0 6 2 10 2 6 4 10 6 14 2 2 6 6 12 10 6 2 14 4 22 4z" />
<glyph unicode="&#xe6b8;" d="M1024 852.667v-48c-2 0-6 0-10 0s-10 0-20-2c-10-2-18-4-26-6-6-4-14-8-20-14-6-4-10-12-10-20v-758c0-12 8-22 22-28 14-8 28-12 42-12l22-2v-48h-342v48c44 0 68 2 76 6 6 4 10 16 10 36v336h-426v-336c0-20 2-32 10-36s32-6 74-6v-48h-340v48c2 0 4 0 8 0s12 2 22 2c8 2 18 4 24 8 8 2 16 6 22 12s8 12 8 20v758c0 12-6 22-20 30-14 6-30 10-44 12h-20v48h340v-48c-42 0-66 0-74-4s-10-16-10-38v-336h426v336c0 22-4 34-10 38-8 4-32 4-76 4v48z" />
<glyph unicode="&#xe6b9;" d="M576 768.667h320c12 0 22-4 30-14 8-8 12-18 12-30v-128h-88l-252-82v82l-172 172h-340l84 84h320zM86 682.667h256c22 0 42-8 60-26 16-16 24-36 24-60v-426c0-24-8-44-24-60-18-16-38-26-60-26h-256c-24 0-44 10-60 26-18 16-26 36-26 60v426c0 24 8 44 26 60 16 18 36 26 60 26zM86 596.667v-170h256v170zM938 370.667l-340-112v138l340 114zM86 340.667v-170h256v170zM938 254.667v-212c0-12-4-22-12-30s-18-12-30-12h-320l-86-86h-320l-84 86h340l172 170h88z" />
<glyph unicode="&#xe6ba;" d="M14 774.667l138 138c10 10 22 14 34 12 14-2 24-8 32-20l120-164c8-12 10-24 8-38s-6-26-16-36l-102-100c58-82 122-158 194-230s148-136 228-194l102 102c10 10 22 14 36 16 14 0 28-2 38-10l164-116c10-8 18-20 20-32 2-14-2-26-12-36l-140-138c-2 0-4 0-8 0s-12 0-24 2c-14 0-28 2-42 4s-32 6-52 12c-22 6-44 14-66 24-24 8-48 20-78 36-28 14-58 32-86 50-30 20-60 44-94 72-36 28-68 58-102 92-42 42-80 86-114 128-34 44-62 84-82 118-18 36-36 70-50 102-14 34-24 62-30 86s-10 46-12 64c-4 18-4 32-4 40z" />
<glyph unicode="&#xe6bb;" d="M512 852.667c52 0 102-2 150-8 46-6 86-14 120-24 34-8 64-20 92-30 30-12 52-24 70-34 18-12 34-22 46-32s22-18 26-24l8-8v-170c0-12-4-22-12-28-8-8-18-10-30-8l-172 28c-12 2-22 8-30 18s-12 20-12 32v124c-80 14-166 22-256 22s-176-8-256-22v-124c0-12-4-22-12-32s-18-16-30-18l-172-28c-12-2-22 0-30 8-8 6-12 16-12 28v170c2 2 4 6 8 10 4 2 12 10 26 22 14 10 30 22 46 32 18 10 40 20 70 34 28 12 60 22 92 32 34 8 74 16 120 22 48 6 98 8 150 8zM512 592.667c32 0 60-2 82-8 24-6 42-12 52-20s20-16 26-24c6-8 10-14 10-20v-52l312-258c8-8 16-20 22-34s8-28 8-38v-182c0-12-4-22-12-30s-18-12-30-12h-940c-12 0-22 4-30 12s-12 18-12 30v182c0 10 2 24 8 38s14 26 22 34l312 258v44c0 2 0 4 0 8s4 10 10 20c6 10 16 18 26 24 10 8 28 14 52 20 22 6 50 8 82 8z" />
<glyph unicode="&#xe6bc;" d="M938 512.667l-170-172h-512l-170 172v426h170v-170h170v170h172v-170h170v170h170zM214 256.667h596c12 0 22-4 30-14 10-8 14-18 14-30s-4-22-14-30c-8-8-18-12-30-12h-10l118-86h-812l118 86h-10c-12 0-22 4-30 12-10 8-14 18-14 30s4 22 14 30c8 10 18 14 30 14zM42 0.667h940c12 0 22-4 30-14 8-8 12-18 12-30v-42h-1024v42c0 12 4 22 12 30 8 10 18 14 30 14z" />
<glyph unicode="&#xe6bd;" d="M598 852.667h-86c-24 0-44-8-60-24-16-18-26-38-26-60v-854h256v854c0 22-8 42-24 60-18 16-38 24-60 24zM938 596.667h-84c-24 0-44-8-60-24-18-18-26-38-26-60v-598h256v598c0 22-8 42-26 60-16 16-36 24-60 24zM342-85.333h-256v342c0 22 8 42 24 60 18 16 38 24 60 24h86c24 0 44-8 60-24 16-18 26-38 26-60z" />
<glyph unicode="&#xe6be;" d="M170 852.667h598c70 0 130-24 180-74s76-110 76-182v-426c0-70-26-130-76-180s-110-76-180-76h-598c-70 0-130 26-180 76s-76 110-76 180v426c0 72 26 132 76 182s110 74 180 74zM86 682.667v-598h768v598zM426 512.667h-170v-86h170v-256h-256v86h172v84h-172v256h256zM768 512.667v-256l-86-86h-170v426h170zM598 512.667v-256h84v256z" />
<glyph unicode="&#xe6bf;" d="M170 852.667h598c70 0 130-24 180-74s76-110 76-182v-426c0-70-26-130-76-180s-110-76-180-76h-598c-70 0-130 26-180 76s-76 110-76 180v426c0 72 26 132 76 182s110 74 180 74zM86 682.667v-598h768v598zM426 170.667h-84v170h-86v-170h-86v426h86v-170h86v170h84zM768 512.667v-256l-86-86h-170v426h170zM598 512.667v-256h84v256z" />
<glyph unicode="&#xe6c0;" d="M170 852.667h598c70 0 130-24 180-74s76-110 76-182v-426c0-70-26-130-76-180s-110-76-180-76h-598c-70 0-130 26-180 76s-76 110-76 180v426c0 72 26 132 76 182s110 74 180 74zM86 682.667v-598h768v598zM426 512.667h-170v-256h170v-86h-256v426h256zM768 512.667h-170v-256h170v-86h-256v426h256z" />
<glyph unicode="&#xe6c1;" d="M170 852.667h598c70 0 130-24 180-74s76-110 76-182v-426c0-70-26-130-76-180s-110-76-180-76h-598c-70 0-130 26-180 76s-76 110-76 180v426c0 72 26 132 76 182s110 74 180 74zM86 682.667v-598h768v598zM426 256.667l-256 128 256 128zM768 384.667l-256-128v256z" />
</font>
</defs>
</svg>
